<?xml version="1.0" encoding="UTF-8"?>
<svg enable-background="new 0 0 1600 1600" version="1.1" viewBox="0 0 1600 1600" xmlns="http://www.w3.org/2000/svg">
 <path d="m800 793.29c-3.7083 0-6.7144 3.0062-6.7144 6.7144 0-3.1891 2.5853-5.7744 5.7744-5.7744s5.7744 2.5853 5.7744 5.7744-2.5853 5.7744-5.7744 5.7744-5.7744-2.5853-5.7744-5.7744c0 3.7083 3.0062 6.7144 6.7144 6.7144s6.7144-3.0062 6.7144-6.7144-3.0061-6.7144-6.7144-6.7144z"/>
 <path d="m798.74 794.54c3.013 0 5.4554 2.4425 5.4554 5.4554 0-2.5911-2.1005-4.6917-4.6917-4.6917s-4.6917 2.1006-4.6917 4.6917 2.1006 4.6917 4.6917 4.6917 4.6917-2.1006 4.6917-4.6917c0 3.0129-2.4424 5.4554-5.4554 5.4554-3.0129 0-5.4554-2.4425-5.4554-5.4554s2.4425-5.4554 5.4554-5.4554z"/>
 <path d="m800 789.17c-5.9811 0-10.83 4.8486-10.83 10.83 0-5.1437 4.1698-9.3135 9.3135-9.3135s9.3135 4.1698 9.3135 9.3135-4.1698 9.3135-9.3135 9.3135-9.3135-4.1698-9.3135-9.3135c0 5.9811 4.8486 10.83 10.83 10.83s10.83-4.8486 10.83-10.83-4.8486-10.83-10.83-10.83z"/>
 <path d="m797.97 791.2c4.8596 0 8.7991 3.9395 8.7991 8.7991 0-4.1793-3.388-7.5673-7.5673-7.5673s-7.5672 3.388-7.5672 7.5673 3.3879 7.5673 7.5672 7.5673 7.5673-3.388 7.5673-7.5673c0 4.8596-3.9395 8.7991-8.7991 8.7991s-8.7991-3.9395-8.7991-8.7991 3.9395-8.7991 8.7991-8.7991z"/>
 <path d="m800 782.53c-9.6469 0-17.467 7.8204-17.467 17.467 0-8.2963 6.7255-15.022 15.022-15.022s15.022 6.7255 15.022 15.022-6.7255 15.022-15.022 15.022c-8.2963 0-15.022-6.7255-15.022-15.022 0 9.6469 7.8204 17.467 17.467 17.467s17.467-7.8204 17.467-17.467-7.8203-17.467-17.467-17.467z"/>
 <path d="m796.72 785.81c7.8381 0 14.192 6.354 14.192 14.192 0-6.7407-5.4644-12.205-12.205-12.205-6.7407 0-12.205 5.4645-12.205 12.205s5.4645 12.205 12.205 12.205c6.7408 0 12.205-5.4645 12.205-12.205 0 7.8381-6.354 14.192-14.192 14.192s-14.192-6.354-14.192-14.192 6.354-14.192 14.192-14.192z"/>
 <path d="m800 771.83c-15.559 0-28.173 12.614-28.173 28.173 0-13.381 10.848-24.229 24.229-24.229s24.229 10.848 24.229 24.229-10.848 24.229-24.229 24.229-24.229-10.848-24.229-24.229c0 15.559 12.614 28.173 28.173 28.173s28.173-12.614 28.173-28.173-12.614-28.173-28.173-28.173z"/>
 <path d="m794.72 777.11c12.642 0 22.89 10.248 22.89 22.89 0-10.872-8.8137-19.686-19.686-19.686s-19.686 8.8137-19.686 19.686 8.8136 19.686 19.686 19.686 19.686-8.8137 19.686-19.686c0 12.642-10.248 22.89-22.89 22.89s-22.891-10.248-22.891-22.89 10.248-22.89 22.89-22.89z"/>
 <path d="m800 754.56c-25.096 0-45.44 20.344-45.44 45.44 0-21.582 17.496-39.079 39.079-39.079s39.079 17.496 39.079 39.079-17.496 39.079-39.079 39.079c-21.582 0-39.079-17.496-39.079-39.079 0 25.096 20.344 45.44 45.44 45.44s45.44-20.344 45.44-45.44-20.344-45.44-45.44-45.44z"/>
 <path d="m791.48 763.08c20.39 0 36.92 16.53 36.92 36.92 0-17.536-14.216-31.751-31.751-31.751s-31.751 14.216-31.751 31.751 14.216 31.751 31.751 31.751 31.751-14.216 31.751-31.751c0 20.39-16.53 36.92-36.92 36.92s-36.92-16.53-36.92-36.92 16.53-36.92 36.92-36.92z"/>
 <path d="m800 726.71c-40.477 0-73.291 32.813-73.291 73.291 0-34.81 28.22-63.03 63.03-63.03s63.03 28.22 63.03 63.03-28.219 63.03-63.03 63.03-63.03-28.22-63.03-63.03c0 40.477 32.813 73.291 73.291 73.291s73.291-32.813 73.291-73.291-32.813-73.291-73.291-73.291z"/>
 <path d="m786.26 740.45c32.888 0 59.549 26.661 59.549 59.549 0-28.284-22.928-51.212-51.212-51.212s-51.212 22.928-51.212 51.212 22.928 51.212 51.212 51.212 51.212-22.928 51.212-51.212c0 32.888-26.661 59.549-59.549 59.549s-59.549-26.661-59.549-59.549 26.661-59.549 59.549-59.549z"/>
 <path d="m800 681.79c-65.286 0-118.21 52.925-118.21 118.21 0-56.146 45.515-101.66 101.66-101.66s101.66 45.515 101.66 101.66-45.515 101.66-101.66 101.66-101.66-45.515-101.66-101.66c0 65.286 52.925 118.21 118.21 118.21s118.21-52.925 118.21-118.21-52.925-118.21-118.21-118.21z"/>
 <path d="m777.84 703.95c53.045 0 96.046 43.001 96.046 96.046 0-45.619-36.981-82.6-82.6-82.6s-82.6 36.981-82.6 82.6 36.981 82.6 82.6 82.6c45.618 0 82.6-36.981 82.6-82.6 0 53.045-43.001 96.046-96.046 96.046s-96.046-43.001-96.046-96.046 43.001-96.046 96.046-96.046z"/>
 <path d="m800 609.34c-105.3 0-190.66 85.362-190.66 190.66 0-90.558 73.412-163.97 163.97-163.97s163.97 73.412 163.97 163.97-73.412 163.97-163.97 163.97-163.97-73.412-163.97-163.97c0 105.3 85.362 190.66 190.66 190.66s190.66-85.362 190.66-190.66-85.362-190.66-190.66-190.66z"/>
 <path d="m764.25 645.09c85.556 0 154.91 69.357 154.91 154.91 0-73.578-59.647-133.23-133.23-133.23s-133.23 59.647-133.23 133.23 59.647 133.23 133.23 133.23 133.23-59.647 133.23-133.23c0 85.556-69.357 154.91-154.91 154.91s-154.91-69.357-154.91-154.91 69.357-154.91 154.91-154.91z"/>
 <path d="m800 492.48c-169.84 0-307.52 137.68-307.52 307.52 0-146.06 118.41-264.47 264.47-264.47s264.47 118.41 264.47 264.47-118.41 264.47-264.47 264.47-264.47-118.41-264.47-264.47c0 169.84 137.68 307.52 307.52 307.52s307.52-137.68 307.52-307.52-137.68-307.52-307.52-307.52z"/>
 <path d="m742.34 550.14c137.99 0 249.86 111.87 249.86 249.86 0-118.67-96.205-214.88-214.88-214.88s-214.88 96.205-214.88 214.88 96.205 214.88 214.88 214.88 214.88-96.205 214.88-214.88c0 137.99-111.87 249.86-249.86 249.86s-249.86-111.87-249.86-249.86 111.87-249.86 249.86-249.86z"/>
 <path d="m800 304c-273.93 0-496 222.07-496 496 0-235.58 190.98-426.56 426.56-426.56s426.56 190.98 426.56 426.56-190.98 426.56-426.56 426.56-426.56-190.98-426.56-426.56c0 273.93 222.07 496 496 496s496-222.07 496-496-222.07-496-496-496z"/>
 <path d="m707 397c222.57 0 403 180.43 403 403 0-191.41-155.17-346.58-346.58-346.58s-346.58 155.17-346.58 346.58 155.17 346.58 346.58 346.58 346.58-155.17 346.58-346.58c0 222.57-180.43 403-403 403s-403-180.43-403-403 180.43-403 403-403z"/>
 <path d="m800 0c-441.83 0-800 358.17-800 800 0-379.97 308.03-688 688-688s688 308.03 688 688-308.03 688-688 688-688-308.03-688-688c0 441.83 358.17 800 800 800s800-358.17 800-800-358.17-800-800-800z"/>
 <path d="m650 150c358.99 0 650 291.01 650 650 0-308.73-250.27-559-559-559s-559 250.27-559 559 250.27 559 559 559 559-250.27 559-559c0 358.99-291.01 650-650 650s-650-291.01-650-650 291.01-650 650-650z"/>
</svg>
