<?xml version="1.0" encoding="UTF-8"?>
<!DOCTYPE svg  PUBLIC '-//W3C//DTD SVG 1.1//EN'  'http://www.w3.org/Graphics/SVG/1.1/DTD/svg11.dtd'>
<svg enable-background="new 0 0 1538 1721.54" version="1.1" viewBox="0 0 1538 1721.54" xml:space="preserve" xmlns="http://www.w3.org/2000/svg">
		<path d="m905.92 836.24c-24.059-98.572-39.51-123.99-48.344-127.52-2.404-1.017-4.434 0.036-8.383 2.63-1.468 0.903-2.97 1.881-4.549 2.596-0.264 0.677-0.489 1.503-0.715 2.556v0.038c19.664 37.181 61.655 121.24 61.655 134.02 0 3.981 0.149-2.411 0.336-14.325z"/>
		<path d="m951.33 1007.2c-7.519 15.039-23.498 68.609-23.498 68.609s0.566-0.188 1.655-0.528c17.068-72.068 156.24-154.47 166.28-160.3l152.14-119.55c2.332-1.842 3.8-4.4 4.174-7.293l-1.881 0.074c1e-3 0-291.35 203.95-298.87 218.98z"/>
		<path d="m1167.9 725.49c-2.145-1.466-4.885-2.294-7.855-2.294-6.919 0-14.174 3.647-14.515 7.219-0.638 6.766-2.894 14.849-6.387 23.834 1.012-1.691 17.365-28.759 28.757-28.759z"/>
		<path d="m647.46 850.57c0-12.783 41.993-96.842 61.655-134.02v-0.038c-0.226-1.053-0.451-1.879-0.715-2.556-1.579-0.715-3.083-1.693-4.549-2.596-3.947-2.593-5.977-3.646-8.383-2.63-8.834 3.532-24.285 28.947-48.347 127.52 0.19 11.916 0.339 18.308 0.339 14.325z"/>
		<path d="m413.89 754.25c-3.496-8.985-5.751-17.068-6.391-23.834-0.338-3.572-7.594-7.219-14.511-7.219-2.97 0-5.715 0.827-7.857 2.294 11.391-1e-3 27.744 27.067 28.759 28.759z"/>
		<path d="m413.89 754.25c-1.015-1.691-17.368-28.759-28.759-28.759-1.24 0.864-2.294 1.955-3.083 3.234-1.279 2.066-1.691 4.472-1.315 6.917l67.632 120.75c4.323 2.106 10.074 4.136 17.104 6.017 1.128 0.298 2.294 0.6 3.496 0.864 1.13 0.264 2.294 0.528 3.46 0.791 3.534 0.787 7.255 1.502 11.204 2.14-28.949-36.953-57.257-80.074-69.7-111.88-1e-3 0-1e-3 -0.036-0.039-0.074z"/>
		<path d="m418.1 834.89l-15.979-31.317-0.074-0.113c-2.481-3.006-4.926-5.977-7.294-8.908l7.368 10.6c-3.608-3.57-68.759-76.691-75.789-75-0.602 0.151-1.053 0.074-1.428-0.151-0.189 0.039-0.338 0.077-0.528 0.151-0.751 0.225-1.389 0.864-1.804 1.617v0.075c0.866 29.512 85.038 94.999 95.528 103.05z"/>
		<path d="m522.23 789.63s-13.685-24.098-19.587-18.234c-1.202 1.504-1.917 3.46-1.917 5.528 0 0.451 0 0.902 0.113 1.504l26.542 92.219c3.119 0.149 6.24 0.26 9.323 0.336 1.428 0.038 2.855 0.077 4.247 0.077 0.94 0.038 1.843 0.038 2.745 0.038v-0.038l-21.315-81.655c-0.076 0.15-0.151 0.225-0.151 0.225z"/>
		<path d="m601.71 1007.2c-7.519-15.038-298.87-218.99-298.87-218.99l-1.881-0.074c0.377 2.893 1.843 5.451 4.174 7.293l152.14 119.55c10.038 5.83 149.21 88.234 166.28 160.3 1.089 0.34 1.653 0.528 1.653 0.528s-15.977-53.57-23.496-68.609z"/>
		<path d="m326.33 730.15c7.03-1.691 72.18 71.429 75.789 75l-7.368-10.6c-18.796-23.008-35.074-43.572-45.902-57.37-3.798-4.887-13.947-10.413-23.947-7.181 0.375 0.225 0.826 0.302 1.428 0.151z"/>
		<path d="m522.23 789.63s0.074-0.075 0.151-0.226l-3.836-14.7c-1.053-3.985-4.662-6.766-8.796-6.766-2.896 0-5.451 1.353-7.106 3.457 5.902-5.863 19.587 18.235 19.587 18.235z"/>
		<path d="m418.1 834.89c-10.489-8.047-94.661-73.534-95.527-103.05v-0.075c-0.262 0.526-0.451 1.128-0.489 1.766-0.149 5.489 0.453 15.677 6.13 22.142l37.442 42.557c16.579 12.181 37.032 27.068 53.498 38.761h0.036l-1.051-2.068c-1e-3 1e-3 -1e-3 -0.037-0.039-0.037z"/>
		<path d="m380.88 736.39c0.264 0.79 0.753 2.107 1.504 3.834l56.391 110.3c2.255 1.502 4.098 2.706 5.564 3.609 0.564 0.34 1.053 0.638 1.504 0.902 0.262 0.153 0.526 0.302 0.751 0.413 0.564 0.302 1.166 0.604 1.768 0.94l-67.632-120.75c1e-3 0.148 0.037 0.412 0.15 0.75z"/>
		<path d="m515.69 869.97c0.64 0.034 1.279 0.111 1.919 0.111 1.353 0.115 2.742 0.226 4.134 0.264 1.881 0.11 3.76 0.225 5.64 0.302l-26.542-92.219 14.849 91.542z"/>
		<path d="m929.49 1075.3c-1.089 0.34-1.655 0.528-1.655 0.528s15.979-53.57 23.498-68.609c7.519-15.038 298.87-218.99 298.87-218.99l1.881-0.074c0.077-0.489 0.111-0.979 0.111-1.504 0-4.024-2.03-7.594-5.413-9.623-3.911-2.332-8.796-2.106-12.404 0.564l-4.026 2.97c-8.983 6.653-21.843 16.164-35.825 26.428-23.272 17.066-54.285 39.623-71.54 51.278-0.413 0.264-0.83 0.562-1.243 0.826-1.166 0.753-2.217 1.468-3.157 2.106-1.468 0.979-2.745 1.766-3.834 2.442-0.753 0.489-1.392 0.868-1.992 1.204-0.302 0.188-0.604 0.34-0.868 0.489-1.991 1.089-4.247 2.179-6.804 3.196-4.17 1.689-9.06 3.306-14.66 4.774-9.549 2.481-20.83 4.549-33.608 6.09-2.332 0.302-4.736 0.565-7.106 0.825-0.902 0.077-1.804 0.192-2.668 0.226l-3.872 0.34-0.489 0.038c-2.745 0.225-5.528 0.451-8.272 0.638-9.136 0.6-18.345 0.902-27.404 0.902-1.732 0-3.536-0.038-5.302-0.149-1.502-0.077-3.043-0.188-4.587-0.34-0.715-0.038-1.464-0.111-2.217-0.188-38.834-4.021-80.6-25.566-82.442-26.54l-2.294-1.204-0.604-2.519c-1.238-5.264-2.443-10.302-3.647-15.187-0.187 11.915-0.336 18.306-0.336 14.323 0-12.783-41.991-96.842-61.655-134.02-3.272 18.045 3.949 90.112 7.557 126.16 2.106 21.28 3.796 38.123 3.796 44.25 0 15.374-13.757 33.459-25.302 45.902-2.068 2.255-3.608 4.962-4.472 7.893l4.472 5.077 46.544 710.62c31.747-3.582 62.975-8.871 93.563-15.855-14.655-169.55-42.287-496.52-42.287-551.31-2e-3 -4.586 0.602-9.284 1.692-13.986z"/>
		<path d="m825.5 940.76c-0.562 1.919-0.864 3.911-0.864 5.941v714.08c17.444-0.898 34.731-2.379 51.881-4.314l-46.544-710.62-4.473-5.077z"/>
		<path d="m727.53 940.76c-0.864-2.932-2.406-5.638-4.474-7.893-11.54-12.443-25.3-30.528-25.3-45.902 0-6.127 1.691-22.97 3.796-44.25 3.611-36.051 10.828-108.12 7.557-126.16-19.662 37.181-61.655 121.24-61.655 134.02 0 3.983-0.149-2.409-0.338-14.323-1.202 4.885-2.406 9.923-3.647 15.187l-0.6 2.519-2.294 1.204c-1.843 0.974-43.61 22.519-82.444 26.54-0.751 0.077-1.504 0.149-2.217 0.188-1.543 0.153-3.083 0.264-4.587 0.34-1.766 0.111-3.572 0.149-5.3 0.149-9.062 0-18.272-0.302-27.406-0.902-2.745-0.187-5.528-0.413-8.272-0.638l-0.487-0.038-3.872-0.34c-0.866-0.034-1.768-0.149-2.67-0.226-2.368-0.26-4.774-0.523-7.104-0.825-12.783-1.541-24.062-3.609-33.61-6.09-5.6-1.468-10.487-3.085-14.662-4.774-2.555-1.017-4.811-2.106-6.804-3.196-0.264-0.149-0.564-0.302-0.864-0.489-0.602-0.336-1.24-0.715-1.994-1.204-1.089-0.677-2.368-1.464-3.834-2.442-0.94-0.638-1.991-1.353-3.157-2.106-0.413-0.264-0.828-0.562-1.24-0.826-17.255-11.655-48.272-34.212-71.542-51.278-13.985-10.264-26.842-19.775-35.827-26.428l-4.021-2.97c-3.611-2.67-8.498-2.896-12.406-0.564-3.383 2.03-5.415 5.6-5.415 9.623 0 0.526 0.038 1.015 0.113 1.504l1.881 0.074s291.35 203.95 298.87 218.99c7.519 15.039 23.496 68.609 23.496 68.609s-0.564-0.188-1.653-0.528c1.089 4.702 1.692 9.4 1.692 13.987 0 54.605-27.443 379.52-42.135 549.56 30.552 7.265 61.737 12.884 93.469 16.748l46.485-709.77 4.469-5.078z"/>
		<path d="m727.53 940.76l-4.474 5.077-46.485 709.77c17.121 2.085 34.404 3.64 51.823 4.69v-713.6c0-2.029-0.3-4.021-0.864-5.94z"/>
		<path d="m1171 728.73c-0.787-1.279-1.838-2.37-3.081-3.234-11.391 0-27.745 27.068-28.757 28.759-0.038 0.038-0.038 0.075-0.038 0.075-12.447 31.806-40.753 74.927-69.702 111.88 3.949-0.638 7.672-1.353 11.204-2.14 1.166-0.264 2.332-0.528 3.46-0.791 1.204-0.264 2.366-0.566 3.494-0.864 7.034-1.881 12.783-3.91 17.106-6.017l67.634-120.75c0.374-2.447-0.039-4.853-1.32-6.918z"/>
		<path d="m1230.5 731.84v-0.075c-0.413-0.753-1.051-1.392-1.804-1.617-0.187-0.074-0.34-0.113-0.528-0.151-0.375 0.226-0.826 0.302-1.43 0.151-7.03-1.691-72.178 71.429-75.787 75l7.366-10.6c-2.366 2.932-4.808 5.902-7.294 8.908l-0.072 0.113-15.979 31.317c10.49-8.046 94.664-73.533 95.528-103.05z"/>
		<path d="m1030.8 789.63s-0.077-0.075-0.149-0.226l-21.315 81.655v0.038c0.902 0 1.804 0 2.74-0.038 1.391 0 2.821-0.039 4.251-0.077 3.081-0.076 6.2-0.187 9.323-0.336l26.54-92.219c0.115-0.602 0.115-1.053 0.115-1.504 0-2.068-0.715-4.023-1.919-5.528-5.901-5.863-19.586 18.235-19.586 18.235z"/>
		<path d="m1226.7 730.15c0.604 0.151 1.055 0.074 1.43-0.151-10-3.232-20.149 2.294-23.945 7.181-10.83 13.798-27.106 34.362-45.906 57.37l-7.366 10.6c3.609-3.571 68.757-76.692 75.787-75z"/>
		<path d="m1050.4 771.39c-1.655-2.104-4.213-3.457-7.106-3.457-4.136 0-7.745 2.781-8.796 6.766l-3.834 14.7c0.072 0.151 0.149 0.226 0.149 0.226s13.685-24.099 19.587-18.235z"/>
		<path d="m1230.5 731.77v0.075c-0.864 29.512-85.038 94.999-95.527 103.05-0.038 0-0.038 0.038-0.038 0.038l-1.051 2.068h0.038c16.464-11.694 36.915-26.581 53.493-38.761l37.447-42.557c5.677-6.466 6.277-16.653 6.128-22.142-0.039-0.639-0.226-1.242-0.49-1.767z"/>
		<path d="m1172.2 736.39c0.115-0.338 0.153-0.602 0.153-0.751l-67.634 120.75c0.604-0.336 1.204-0.638 1.77-0.94 0.221-0.111 0.485-0.26 0.749-0.413 0.451-0.264 0.94-0.562 1.506-0.902 1.464-0.902 3.306-2.106 5.562-3.609l56.391-110.3c0.754-1.726 1.244-3.043 1.503-3.833z"/>
		<path d="m1031.3 870.34c1.391-0.039 2.783-0.149 4.136-0.264 0.638 0 1.276-0.077 1.915-0.111l14.851-91.542-26.54 92.219c1.881-0.077 3.757-0.192 5.638-0.302z"/>
		<path d="m1171.1 739.44c0.528-1.015 0.902-2.03 1.089-3.045-0.26 0.79-0.749 2.107-1.502 3.834l0.413-0.789z"/>
		<path d="m381.97 739.44l0.413 0.79c-0.751-1.728-1.24-3.045-1.504-3.834 0.189 1.014 0.563 2.029 1.091 3.044z"/>
		<path d="m867.64 428.45s-0.03 0.032-0.064 0.126c-2.157 3.97-55.608 103.25-55.608 159.49 0 30.51 15.753 57.987 30.506 76.993 5.409 6.972 10.63 12.785 14.945 17.194-0.566-9.285-0.906-19.1-0.906-29.259 0-57.393 11.128-159.55 11.128-159.55s11.128 102.16 11.128 159.55c0 9.691-0.345 19.068-0.843 27.976-4.753 4.44-5.315 5.346-0.064 1.283 1.221-0.938 2.345-2.126 3.345-3.532 0 0 0.03 0 0.03-0.032 1.192-1.281 2.409-2.626 3.66-4.064 16.319-18.63 38.387-50.453 38.387-86.559 0-56.362-53.672-155.98-55.612-159.52-0.032-0.062-0.032-0.094-0.032-0.094z"/>
		<path d="m1245.3 354.5c-9e-3 -0.068 0-0.098 0-0.098s-0.038 0.019-0.098 0.098c-3.289 3.098-85.106 80.687-102.69 134.1-9.54 28.981-3.166 60.006 4.906 82.672 2.953 8.313 6.098 15.468 8.817 21.005 2.366-8.996 5.111-18.426 8.285-28.077 17.945-54.515 60.459-148.07 60.459-148.07s-21.374 100.51-39.319 155.03c-3.03 9.204-6.289 18.004-9.549 26.31-5.902 2.73-6.719 3.415-0.46 1.198 1.451-0.51 2.894-1.285 4.281-2.31 0 0 0.03 0.01 0.043-0.019 1.528-0.845 3.106-1.74 4.745-2.717 21.323-12.593 52.234-35.921 63.523-70.214 17.626-53.538-2.208-164.95-2.944-168.91z"/>
		<path d="m1272 702.21c-2.587 8.436-4.336 16.051-5.455 22.115 7.268-5.804 15.098-11.736 23.404-17.585 46.927-33.041 136.86-82.751 136.86-82.751s-77.123 67.911-124.05 100.95c-7.923 5.579-15.791 10.696-23.362 15.415-6.366-1.328-7.43-1.268-1.085 0.687 1.468 0.458 3.089 0.694 4.813 0.702 0 0 0.017 0.025 0.042 6e-3 1.732 0.234 3.536 0.458 5.43 0.651 24.63 2.617 63.353 2.345 92.876-18.442 46.085-32.445 96.646-133.68 98.417-137.3 0.034-0.062 0.06-0.079 0.06-0.079s-0.043-8e-3 -0.136 0.021c-4.489 0.521-116.44 13.968-162.42 46.342-24.945 17.564-38.345 46.264-45.392 69.27z"/>
		<path d="m1051.2 1018.1c-12.987-6.157-29.191-2.2-41.502 2.864-4.511 1.855-8.481 3.83-11.591 5.545 4.115 1.532 8.391 3.306 12.715 5.357 24.43 11.583 64.727 38.919 64.727 38.919s-46.664-13.911-71.093-25.494c-4.128-1.957-8.021-4.055-11.668-6.157-0.532-3.761-0.757-4.281-0.528-0.293 0.162 0.859 0.345 1.778 0.545 2.727 0 0-8e-3 0.022 4e-3 0.026 0.208 0.979 0.43 1.983 0.685 3.03 3.264 13.604 10.494 33.336 25.864 40.625 23.991 11.375 81.748-0.893 83.808-1.349 0.034-4e-3 0.047 0 0.047 0s-4e-3 -0.026-0.034-0.064c-1.072-2.102-28.043-54.382-51.979-65.736z"/>
		<path d="m1256.5 924.9c-16.54-7.791-35.923-5.294-50.425-1.238-5.319 1.485-9.957 3.153-13.574 4.634 5.196 2.03 10.617 4.327 16.123 6.923 31.119 14.66 83.344 47.473 83.344 47.473s-58.557-19.371-89.676-34.03c-5.255-2.472-10.242-5.077-14.928-7.656-1.055-4.004-1.387-4.574-0.677-0.366 0.289 0.923 0.613 1.906 0.962 2.923 0 0-9e-3 0.021 9e-3 0.025 0.357 1.047 0.74 2.128 1.162 3.247 5.46 14.617 16.438 36.072 36.013 45.294 30.562 14.396 99.846 7.425 102.31 7.157 0.043-4e-3 0.06 4e-3 0.06 4e-3s-8e-3 -0.025-0.051-0.068c-1.537-2.318-40.162-59.957-70.656-74.322z"/>
		<path d="m1173.4 968.27c-16.23-16.136-41.281-20.179-61.161-20.404-7.294-0.085-13.842 0.315-19.042 0.855 5.311 4.536 10.757 9.502 16.162 14.877 30.532 30.357 77.506 91.812 77.506 91.812s-61.714-46.63-92.246-76.987c-5.153-5.127-9.915-10.319-14.323-15.362 0.783-5.515 0.677-6.37-0.643-0.723-0.306 1.311-0.421 2.689-0.336 4.098 0 0-0.021 0.021-4e-3 0.039-0.102 1.468-0.196 2.991-0.26 4.587-0.898 20.723 1.413 52.255 20.621 71.353 29.983 29.817 118.53 46.766 121.69 47.344 0.051 0.013 0.068 0.03 0.068 0.03s4e-3 -0.038-0.026-0.111c-0.682-3.537-18.09-91.659-48.009-121.41z"/>
		<path d="m1257.6 825.96c-20.693 9.783-34.872 28.021-43.587 42.944-3.2 5.468-5.664 10.456-7.434 14.451 6.136-3.315 12.698-6.668 19.587-9.928 38.923-18.404 111.36-44.506 111.36-44.506s-66.136 39.417-105.06 57.821c-6.57 3.111-13.03 5.91-19.213 8.468-4.353-1.417-5.128-1.464-0.885 0.374 1.042 0.285 2.166 0.574 3.34 0.868 0 0 9e-3 0.017 0.03 8e-3 1.204 0.298 2.464 0.596 3.792 0.885 17.251 3.787 45.076 6.783 69.561-4.796 38.225-18.073 90.612-82.127 92.459-84.419 0.034-0.038 0.055-0.049 0.055-0.049s-0.03-8e-3 -0.102 2e-3c-3.302-0.015-85.757-0.155-123.9 17.877z"/>
		<path d="m1148.7 380.6c4.702 4.251 9.081 7.685 12.63 10.234-1.991-6.685-3.932-13.794-5.711-21.204-10.055-41.866-20.796-118.11-20.796-118.11s25.059 72.799 35.115 114.66c1.698 7.07 3.119 13.964 4.357 20.541-2.276 3.972-2.481 4.719 0.187 0.945 0.617-0.872 1.136-1.913 1.532-3.094 0 0 0.021-4e-3 0.017-0.027 0.536-1.119 1.085-2.287 1.638-3.53 7.234-16.112 15.859-42.736 9.532-69.074-9.872-41.113-61.864-105.49-63.727-107.77-0.034-0.042-0.038-0.064-0.038-0.064s-0.013 0.027-0.017 0.1c-0.694 3.23-17.693 83.913-7.838 124.94 5.344 22.254 20.298 39.863 33.119 51.446z"/>
		<path d="m1075.8 722.06c10.668-41.713 36.796-114.14 36.796-114.14s-11.859 76.072-22.528 117.79c-1.8 7.043-3.766 13.802-5.745 20.195-3.868 2.447-4.4 3.013-0.277 0.922 0.958-0.481 1.898-1.16 2.8-2.019 0 0 0.021 4e-3 0.026-0.017 1-0.736 2.034-1.515 3.102-2.353 13.923-10.866 33.987-30.376 40.702-56.619 10.477-40.964-5.413-122.17-5.996-125.06-8e-3 -0.051-4e-3 -0.074-4e-3 -0.074s-0.026 0.017-0.064 0.081c-2.119 2.532-54.847 65.925-65.302 106.8-5.672 22.175-0.681 44.73 5.247 60.962 2.17 5.955 4.438 11.036 6.383 14.946 1.367-6.838 2.971-14.03 4.86-21.415z"/>
		<path d="m982.06 327.48c-0.013-6.976 0.153-14.342 0.579-21.953 2.404-42.989 14.613-119.07 14.613-119.07s3.655 76.963 1.255 119.95c-0.409 7.257-1.047 14.268-1.774 20.923-3.57 3.134-4.013 3.791-0.098 0.956 0.911-0.653 1.762-1.498 2.532-2.511 0 0 0.021 0 0.026-0.024 0.898-0.912 1.826-1.87 2.774-2.898 12.413-13.306 29.476-36.264 30.987-63.308 2.358-42.217-31.732-118.98-32.966-121.7-0.021-0.049-0.017-0.072-0.017-0.072s-0.026 0.023-0.051 0.091c-1.702 2.887-43.966 75.125-46.319 117.25-1.277 22.853 8.804 44.061 18.528 58.885 3.565 5.439 7.041 10.001 9.931 13.475z"/>
		<path d="m769.07 541.06c-3.872 2.447-4.4 3.013-0.279 0.921 0.955-0.483 1.898-1.162 2.8-2.019 0 0 0.021 5e-3 0.028-0.017 1-0.738 2.03-1.515 3.1-2.355 13.923-10.864 33.987-30.374 40.702-56.617 10.477-40.964-5.413-122.17-5.996-125.06-8e-3 -0.049-4e-3 -0.072-4e-3 -0.072s-0.026 0.017-0.064 0.081c-2.119 2.532-54.844 65.925-65.3 106.8-5.672 22.174-0.681 44.73 5.245 60.961 2.17 5.955 4.436 11.036 6.383 14.947 1.366-6.841 2.97-14.03 4.86-21.415 10.668-41.712 36.796-114.14 36.796-114.14s-11.859 76.074-22.528 117.79c-1.802 7.042-3.766 13.802-5.743 20.195z"/>
		<path d="m994.06 616.32c-0.017-0.051-0.013-0.074-0.013-0.074s-0.03 0.019-0.072 0.083c-2.413 2.594-62.353 67.531-69.787 109.06-4.03 22.53 6.136 45.291 16.545 61.64 3.817 5.996 7.621 11.106 10.817 15.038 0.732-6.945 1.732-14.247 3.072-21.749 7.587-42.383 30.834-116.08 30.834-116.08s-3.753 77.185-11.34 119.57c-1.281 7.157-2.821 14.027-4.438 20.529-4.745 2.534-5.357 3.115-0.221 0.936 1.192-0.502 2.332-1.202 3.396-2.083 0 0 0.026 4e-3 0.03-0.019 1.213-0.76 2.455-1.562 3.74-2.428 16.757-11.2 40.289-31.243 45.064-57.904 7.446-41.62-26.392-123.6-27.627-126.52z"/>
		<path d="m1052.3 308.33s-0.026 0.026-0.051 0.098c-1.74 3.085-44.893 80.204-42.442 122.32 1.328 22.851 16.523 42.615 30.455 56.087 5.106 4.94 10 9.025 14.021 12.104-0.902-6.926-1.638-14.26-2.081-21.868-2.502-42.982 2.932-120.07 2.932-120.07s14.336 75.936 16.838 118.92c0.426 7.257 0.528 14.3 0.472 20.997-4.03 3.57-4.489 4.279 0 0.964 1.043-0.766 1.987-1.715 2.817-2.819 0 0 0.026-2e-3 0.026-0.025 1-1.021 2.026-2.089 3.072-3.232 13.681-14.798 31.898-39.772 30.323-66.812-2.455-42.21-54.476-114.05-56.353-116.6-0.029-0.046-0.029-0.07-0.029-0.07z"/>
		<path d="m1228.6 592.35s-0.026 8e-3 -0.055 0.049c-1.8 1.47-46.532 38.33-54.357 64.457-4.247 14.173 1.038 29.668 6.928 41.053 2.153 4.177 4.366 7.781 6.247 10.577 0.966-4.411 2.132-9.03 3.549-13.751 7.987-26.662 28.642-72.193 28.642-72.193s-7.783 49.387-15.774 76.051c-1.349 4.502-2.851 8.798-4.383 12.851-3.362 1.238-3.813 1.564-0.213 0.585 0.766-0.323 1.583-0.681 2.426-1.061 0 0 0.017 4e-3 0.026-0.011 0.864-0.389 1.753-0.802 2.677-1.253 12.03-5.828 29.225-16.787 34.251-33.562 7.843-26.183-9.328-81.766-9.957-83.742-0.011-0.035-7e-3 -0.05-7e-3 -0.05z"/>
		<path d="m1398.8 548.98c3.766 2.813 7.328 5.092 10.243 6.783-1.06-4.389-2.026-9.055-2.817-13.919-4.468-27.472-5.787-77.451-5.787-77.451s14.583 47.821 19.047 75.296c0.757 4.638 1.281 9.16 1.677 13.474-2.485 2.585-2.749 3.072 0.064 0.619 0.549-0.628 1.123-1.304 1.715-2.015 0 0 0.021-4e-3 0.017-0.019 0.609-0.728 1.23-1.489 1.864-2.3 8.272-10.498 18.945-27.87 16.136-45.153-4.387-26.979-44.123-69.468-45.553-70.97-0.026-0.027-0.026-0.042-0.026-0.042s-0.017 0.019-0.03 0.066c-0.974 2.111-25.098 54.815-20.719 81.734 2.374 14.604 13.897 26.23 24.169 33.897z"/>
		<path d="m962.83 601.16c-3.366 1.238-3.817 1.564-0.213 0.585 0.766-0.323 1.583-0.681 2.425-1.061 0 0 0.017 6e-3 0.021-9e-3 0.868-0.391 1.757-0.804 2.681-1.255 12.03-5.828 29.221-16.787 34.247-33.561 7.847-26.183-9.328-81.766-9.957-83.742-8e-3 -0.034-4e-3 -0.049-4e-3 -0.049s-0.021 0.01-0.051 0.049c-1.8 1.47-46.532 38.332-54.361 64.457-4.247 14.172 1.043 29.668 6.928 41.053 2.157 4.177 4.366 7.781 6.251 10.576 0.966-4.411 2.132-9.029 3.545-13.749 7.991-26.664 28.647-72.195 28.647-72.195s-7.787 49.387-15.774 76.05c-1.351 4.502-2.853 8.798-4.385 12.851z"/>
		<path d="m1303.5 413.75c4.587 2.655 8.945 4.781 12.515 6.349-1.166-4.37-2.213-9.021-3.03-13.878-4.621-27.449-4.557-77.7-4.557-77.7s16.515 47.459 21.136 74.909c0.779 4.633 1.281 9.161 1.625 13.485-3.183 2.719-3.532 3.223 0.055 0.621 0.702-0.657 1.447-1.366 2.208-2.108 0 0 0.021-4e-3 0.021-0.019 0.779-0.762 1.579-1.557 2.396-2.402 10.655-10.957 24.536-28.943 21.63-46.211-4.536-26.953-52.544-67.868-54.272-69.314-0.026-0.026-0.03-0.041-0.03-0.041s-0.021 0.019-0.038 0.068c-1.285 2.168-33.115 56.353-28.587 83.246 2.456 14.591 16.405 25.757 28.928 32.995z"/>
		<path d="m1327.1 449.62c-1.974 2.047-51.013 53.281-61.276 87.549-5.57 18.591-1.477 38.064 3.587 52.202 1.855 5.185 3.808 9.632 5.502 13.066 1.366-5.755 2.962-11.795 4.817-17.987 10.477-34.972 35.562-95.293 35.562-95.293s-12.213 64.176-22.693 99.148c-1.766 5.906-3.677 11.562-5.596 16.902-3.557 1.883-4.047 2.336-0.268 0.77 0.877-0.359 1.745-0.889 2.579-1.572 0 0 0.017 4e-3 0.026-0.013 0.919-0.577 1.868-1.183 2.855-1.843 12.838-8.525 31.408-24.093 38-46.093 10.289-34.345-2.557-104.35-3.034-106.84-9e-3 -0.044 0-0.064 0-0.064s-0.027 0.015-0.061 0.066z"/>
		<path d="m1072 588.74c6.834-22.804-3.545-69.842-3.923-71.514-9e-3 -0.03-4e-3 -0.043-4e-3 -0.043s-0.017 9e-3 -0.042 0.043c-1.383 1.336-35.779 34.808-42.596 57.561-3.702 12.345-0.443 25.438 3.43 34.979 1.417 3.498 2.894 6.504 4.166 8.83 0.889-3.828 1.936-7.842 3.166-11.953 6.957-23.223 24-63.163 24-63.163s-7.732 42.731-14.689 65.953c-1.174 3.921-2.455 7.673-3.745 11.215-2.523 1.2-2.868 1.498-0.179 0.511 0.574-0.309 1.191-0.649 1.825-1.011 0 0 0.013 5e-3 0.017-8e-3 0.651-0.37 1.328-0.76 2.026-1.185 9.08-5.496 22.173-15.606 26.548-30.215z"/>
		<path d="m837.26 340.62c0.434-0.489 0.894-1.022 1.362-1.581 0 0 0.017 0 0.013-0.013 0.485-0.575 0.983-1.175 1.489-1.815 6.621-8.298 15.4-22.317 14.447-37.536-1.485-23.761-27.51-64.295-28.447-65.731-0.017-0.026-0.017-0.038-0.017-0.038s-0.013 0.013-0.026 0.053c-0.834 1.734-21.515 45.047-20.03 68.753 0.804 12.862 8.396 24.017 15.332 31.625 2.54 2.791 4.966 5.1 6.966 6.84-0.494-3.898-0.902-8.028-1.17-12.311-1.515-24.193 0.643-67.563 0.643-67.563s7.545 42.761 9.06 66.957c0.255 4.085 0.353 8.047 0.37 11.817-1.953 2.002-2.175 2.398 8e-3 0.543z"/>
		<path d="m1483.7 787.63c-1.536-1.155-40.021-29.834-63.57-32.972-12.774-1.702-25.187 3.585-33.996 8.913-3.23 1.951-5.966 3.887-8.059 5.508 3.919 0.274 8.047 0.674 12.302 1.24 24.03 3.202 66.161 13.719 66.161 13.719s-43.417-0.883-67.446-4.083c-4.055-0.541-7.962-1.213-11.664-1.928-1.583-2.304-1.932-2.598-0.532-0.098 0.396 0.521 0.83 1.075 1.285 1.645 0 0 0 0.013 0.013 0.015 0.468 0.587 0.957 1.189 1.489 1.811 6.86 8.102 18.911 19.432 34.025 21.447 23.6 3.145 68.408-14.532 70-15.174 0.026-0.011 0.038-9e-3 0.038-9e-3s-8e-3 -0.014-0.046-0.034z"/>
		<path d="m1224.5 320.34c0.889-3.826 1.936-7.841 3.166-11.953 6.957-23.221 24-63.161 24-63.161s-7.728 42.729-14.689 65.953c-1.174 3.921-2.455 7.673-3.745 11.213-2.523 1.202-2.868 1.498-0.179 0.513 0.574-0.311 1.191-0.649 1.826-1.01 0 0 0.013 4e-3 0.017-8e-3 0.651-0.37 1.328-0.762 2.026-1.188 9.085-5.492 22.174-15.602 26.549-30.21 6.834-22.806-3.54-69.844-3.923-71.517-8e-3 -0.028-4e-3 -0.04-4e-3 -0.04s-0.017 8e-3 -0.038 0.043c-1.387 1.336-35.783 34.806-42.6 57.561-3.702 12.345-0.438 25.438 3.43 34.977 1.415 3.498 2.891 6.504 4.164 8.827z"/>
		<path d="m1053.3 296.27c0.702-3.204 1.553-6.56 2.579-9.989 5.804-19.368 20.787-52.451 20.787-52.451s-5.672 35.872-11.476 55.242c-0.979 3.27-2.072 6.391-3.179 9.336-2.438 0.902-2.766 1.136-0.157 0.423 0.553-0.236 1.145-0.496 1.757-0.772 0 0 0.013 4e-3 0.017-7e-3 0.625-0.283 1.272-0.585 1.94-0.912 8.711-4.243 21.162-12.217 24.808-24.402 5.702-19.021-6.681-59.37-7.136-60.806-4e-3 -0.024 0-0.034 0-0.034s-0.017 6e-3 -0.038 0.034c-1.306 1.07-33.706 27.874-39.391 46.855-3.085 10.296 0.728 21.543 4.979 29.808 1.557 3.03 3.153 5.647 4.51 7.675z"/>
		<path d="m670.36 428.45s0 0.032-0.03 0.094c-1.938 3.534-55.61 103.16-55.61 159.52 0 36.106 22.068 67.929 38.385 86.559 1.251 1.439 2.47 2.783 3.66 4.064 0 0.032 0.03 0.032 0.03 0.032 1 1.406 2.125 2.594 3.345 3.532 5.253 4.064 4.689 3.157-0.062-1.283-0.5-8.908-0.845-18.285-0.845-27.976 0-57.393 11.128-159.55 11.128-159.55s11.13 102.16 11.13 159.55c0 10.159-0.345 19.974-0.906 29.259 4.313-4.408 9.534-10.221 14.942-17.194 14.753-19.006 30.508-46.483 30.508-76.993 0-56.236-53.453-155.52-55.61-159.49-0.033-0.094-0.065-0.126-0.065-0.126z"/>
		<path d="m381.74 592.28c2.719-5.537 5.86-12.691 8.817-21.005 8.072-22.666 14.447-53.691 4.906-82.672-17.583-53.417-99.399-131.01-102.69-134.1-0.06-0.079-0.098-0.098-0.098-0.098s9e-3 0.03 0 0.098c-0.738 3.962-20.57 115.37-2.947 168.91 11.289 34.293 42.202 57.621 63.525 70.214 1.638 0.977 3.217 1.872 4.745 2.717 0.011 0.03 0.04 0.019 0.04 0.019 1.389 1.025 2.83 1.8 4.281 2.31 6.26 2.217 5.44 1.532-0.46-1.198-3.26-8.306-6.519-17.106-9.549-26.31-17.947-54.517-39.317-155.03-39.317-155.03s42.513 93.557 60.457 148.07c3.179 9.652 5.921 19.082 8.289 28.078z"/>
		<path d="m728.43 401.26c4.374-4.349 9.674-10.092 15.179-16.987 15.013-18.802 31.145-46.059 31.564-76.566 0.772-56.232-51.31-156.24-53.415-160.24-0.03-0.094-0.06-0.126-0.06-0.126s0 0.032-0.032 0.094c-1.987 3.506-57.025 102.38-57.8 158.74-0.496 36.102 21.134 68.225 37.196 87.078 1.23 1.455 2.43 2.815 3.6 4.113 0 0.032 0.032 0.032 0.032 0.032 0.981 1.419 2.089 2.624 3.296 3.579 5.196 4.134 4.645 3.221-0.045-1.283-0.379-8.915-0.594-18.298-0.462-27.987 0.789-57.387 13.321-159.38 13.321-159.38s9.723 102.3 8.934 159.69c-0.138 10.157-0.617 19.968-1.308 29.244z"/>
		<path d="m156.49 723.96c29.521 20.787 68.246 21.059 92.874 18.442 1.896-0.193 3.698-0.417 5.428-0.651 0.028 0.019 0.045-6e-3 0.045-6e-3 1.726-9e-3 3.345-0.245 4.815-0.702 6.345-1.955 5.279-2.015-1.085-0.687-7.572-4.719-15.438-9.836-23.362-15.415-46.93-33.04-124.05-100.95-124.05-100.95s89.936 49.71 136.86 82.751c8.306 5.849 16.134 11.781 23.402 17.585-1.121-6.064-2.87-13.679-5.455-22.115-7.047-23.007-20.445-51.706-45.391-69.27-45.983-32.374-157.94-45.821-162.42-46.342-0.096-0.03-0.138-0.021-0.138-0.021s0.026 0.017 0.057 0.079c1.774 3.618 52.336 104.86 98.421 137.3z"/>
		<path d="m434.77 1083.9s0.015-4e-3 0.049 0c2.057 0.455 59.817 12.723 83.806 1.349 15.368-7.289 22.602-27.021 25.864-40.625 0.255-1.047 0.479-2.051 0.683-3.03 0.015-4e-3 4e-3 -0.026 4e-3 -0.026 0.202-0.949 0.385-1.868 0.547-2.727 0.23-3.988 4e-3 -3.468-0.526 0.293-3.651 2.102-7.542 4.2-11.668 6.157-24.43 11.583-71.095 25.494-71.095 25.494s40.3-27.336 64.729-38.919c4.323-2.051 8.6-3.826 12.713-5.357-3.111-1.715-7.079-3.689-11.591-5.545-12.311-5.064-28.513-9.021-41.5-2.864-23.938 11.353-50.906 63.634-51.978 65.736-0.033 0.038-0.037 0.064-0.037 0.064z"/>
		<path d="m281.54 924.9c-30.493 14.366-69.117 72.004-70.655 74.323-0.043 0.043-0.051 0.068-0.051 0.068s0.017-8e-3 0.06-4e-3c2.468 0.268 71.755 7.239 102.31-7.157 19.576-9.221 30.553-30.677 36.013-45.294 0.423-1.119 0.806-2.2 1.164-3.247 0.017-4e-3 6e-3 -0.025 6e-3 -0.025 0.479-0.962 0.804-1.945 0.964-2.923 0.711-4.209 0.379-3.638-0.677 0.366-4.687 2.579-9.674 5.183-14.93 7.656-31.119 14.659-89.676 34.03-89.676 34.03s52.225-32.813 83.344-47.473c5.508-2.596 10.93-4.893 16.123-6.923-3.617-1.481-8.255-3.149-13.574-4.634-14.502-4.057-33.883-6.555-50.425 1.237z"/>
		<path d="m316.58 1089.8s0.015-0.017 0.07-0.03c3.162-0.578 91.71-17.527 121.69-47.344 19.208-19.098 21.519-50.63 20.621-71.353-0.064-1.596-0.155-3.119-0.26-4.587 0.015-0.018-4e-3 -0.039-4e-3 -0.039 0.085-1.409-0.028-2.787-0.336-4.098-1.317-5.647-1.428-4.791-0.64 0.723-4.409 5.043-9.17 10.234-14.325 15.362-30.53 30.357-92.244 76.987-92.244 76.987s46.972-61.455 77.504-91.812c5.404-5.374 10.853-10.341 16.166-14.877-5.202-0.54-11.753-0.94-19.045-0.855-19.883 0.226-44.934 4.268-61.164 20.404-29.917 29.749-47.325 117.87-48.008 121.41-0.03 0.073-0.026 0.111-0.026 0.111z"/>
		<path d="m156.52 808.09c-0.072-0.01-0.102-2e-3 -0.102-2e-3s0.021 0.011 0.055 0.049c1.847 2.292 54.234 66.346 92.459 84.419 24.487 11.578 52.313 8.583 69.563 4.796 1.328-0.289 2.585-0.588 3.789-0.885 0.021 8e-3 0.03-8e-3 0.03-8e-3 1.177-0.294 2.3-0.583 3.343-0.868 4.243-1.839 3.468-1.791-0.887-0.374-6.183-2.558-12.64-5.357-19.213-8.468-38.925-18.404-105.06-57.821-105.06-57.821s72.434 26.102 111.36 44.506c6.889 3.26 13.449 6.613 19.587 9.928-1.77-3.996-4.236-8.983-7.434-14.451-8.717-14.923-22.896-33.161-43.589-42.944-38.14-18.034-120.6-17.894-123.9-17.877z"/>
		<path d="m356.53 391.34c-6e-3 0.023 0.015 0.027 0.015 0.027 0.396 1.181 0.913 2.221 1.532 3.094 2.668 3.777 2.464 3.028 0.185-0.945 1.238-6.577 2.66-13.47 4.357-20.538 10.057-41.866 35.117-114.67 35.117-114.67s-10.74 76.238-20.795 118.11c-1.781 7.411-3.721 14.517-5.711 21.202 3.549-2.549 7.925-5.983 12.628-10.232 12.823-11.585 27.774-29.193 33.121-51.449 9.853-41.021-7.145-121.71-7.838-124.93-2e-3 -0.074-0.017-0.102-0.017-0.102s-6e-3 0.023-0.038 0.064c-1.864 2.277-53.855 66.655-63.729 107.77-6.328 26.338 2.298 52.961 9.532 69.074 0.552 1.243 1.101 2.411 1.641 3.531z"/>
		<path d="m507.13 266.75c9.762 25.266 34.215 41.411 50.972 49.921 1.287 0.66 2.526 1.261 3.726 1.83 8e-3 0.021 0.032 0.013 0.032 0.013 1.098 0.706 2.228 1.226 3.357 1.545 4.87 1.385 4.221 0.909-0.391-0.881-2.768-6.096-5.551-12.564-8.17-19.345-15.517-40.164-35.14-114.74-35.14-114.74s35.61 68.404 51.127 108.56c2.747 7.111 5.153 14.074 7.257 20.728 1.909-4.281 4.085-9.798 6.085-16.177 5.46-17.396 9.347-40.996 1.1-62.346-15.204-39.353-80.44-94-83.061-96.178-0.047-0.058-0.079-0.07-0.079-0.07s9e-3 0.021 2e-3 0.074c-0.436 3.008-12.055 87.621 3.183 127.06z"/>
		<path d="m608.27 475.18c3.185-2.99 7.081-6.964 11.189-11.787 11.206-13.153 23.742-32.557 26.149-55.319 4.436-41.955-22.911-119.74-24.017-122.86-0.013-0.072-0.03-0.098-0.03-0.098s-4e-3 0.023-0.03 0.068c-1.553 2.5-44.73 73.091-49.176 115.14-2.847 26.936 9.166 52.212 18.434 67.249 0.711 1.16 1.406 2.247 2.087 3.285-2e-3 0.024 0.017 0.026 0.017 0.026 0.547 1.119 1.196 2.085 1.923 2.868 3.134 3.398 2.836 2.683 0.06-0.96 0.374-6.683 0.887-13.702 1.651-20.932 4.526-42.819 19.906-118.26 19.906-118.26s-0.734 76.989-5.26 119.81c-0.801 7.578-1.801 14.878-2.903 21.766z"/>
		<path d="m865.98 260.89c0 0.019 0.021 0.022 0.021 0.022 0.677 0.864 1.34 1.687 1.966 2.447 3.187 2.911 2.877 2.304 0.043-0.808 0.264-5.617 0.66-11.519 1.298-17.591 3.804-35.97 17.898-99.219 17.898-99.219s0.553 64.798-3.251 100.76c-0.672 6.368-1.549 12.496-2.532 18.275 3.128-2.461 6.949-5.743 10.97-9.736 10.97-10.885 23.157-27.008 25.179-46.129 3.728-35.242-24.872-101.18-26.03-103.82-0.013-0.061-0.034-0.083-0.034-0.083s0 0.019-0.026 0.057c-1.511 2.079-43.43 60.781-47.161 96.103-2.396 22.628 10.021 44.106 19.523 56.917 0.728 0.987 1.443 1.914 2.136 2.801z"/>
		<path d="m467.03 743.47c1.947-3.91 4.213-8.991 6.383-14.946 5.926-16.232 10.919-38.787 5.247-60.962-10.455-40.872-63.181-104.26-65.302-106.8-0.038-0.064-0.064-0.081-0.064-0.081s6e-3 0.023-2e-3 0.074c-0.585 2.885-16.474 84.093-5.996 125.06 6.713 26.242 26.776 45.753 40.702 56.619 1.068 0.838 2.1 1.617 3.1 2.353 4e-3 0.021 0.026 0.017 0.026 0.017 0.902 0.859 1.845 1.538 2.802 2.019 4.121 2.091 3.591 1.526-0.279-0.922-1.977-6.394-3.94-13.153-5.743-20.195-10.67-41.715-22.528-117.79-22.528-117.79s26.125 72.423 36.796 114.14c1.89 7.385 3.494 14.577 4.858 21.415z"/>
		<path d="m544.02 616.33c-0.04-0.064-0.072-0.083-0.072-0.083s6e-3 0.023-0.013 0.074c-1.232 2.913-35.074 84.897-27.623 126.52 4.77 26.661 28.306 46.704 45.061 57.904 1.285 0.866 2.53 1.668 3.74 2.428 4e-3 0.023 0.03 0.019 0.03 0.019 1.064 0.881 2.206 1.581 3.398 2.083 5.136 2.179 4.523 1.598-0.223-0.936-1.617-6.502-3.157-13.373-4.438-20.529-7.585-42.383-11.34-119.57-11.34-119.57s23.249 73.698 30.834 116.08c1.343 7.502 2.338 14.804 3.072 21.749 3.196-3.932 7-9.042 10.815-15.038 10.411-16.349 20.579-39.11 16.547-61.64-7.436-41.53-67.374-106.47-69.788-109.06z"/>
		<path d="m462.67 495.04c0 0.024 0.028 0.025 0.028 0.025 0.826 1.105 1.774 2.053 2.817 2.819 4.487 3.315 4.026 2.606 0-0.964-0.057-6.698 0.047-13.74 0.47-20.997 2.502-42.983 16.84-118.92 16.84-118.92s5.432 77.087 2.93 120.07c-0.445 7.608-1.177 14.942-2.081 21.868 4.023-3.079 8.913-7.164 14.021-12.104 13.934-13.472 29.128-33.236 30.457-56.087 2.451-42.117-40.702-119.24-42.444-122.32-0.023-0.072-0.049-0.098-0.049-0.098s-2e-3 0.024-0.032 0.068c-1.877 2.547-53.895 74.385-56.353 116.6-1.574 27.04 16.642 52.015 30.323 66.812 1.049 1.145 2.075 2.213 3.073 3.234z"/>
		<path d="m940.41 432.43c0.919 7.566 1.502 14.913 1.843 21.887 3.413-3.744 7.498-8.634 11.647-14.404 11.315-15.736 22.749-37.889 19.991-60.61-5.085-41.883-61.272-110.09-63.536-112.82-0.034-0.066-0.064-0.087-0.064-0.087s4e-3 0.023-0.021 0.074c-1.391 2.838-39.796 82.787-34.706 124.76 3.264 26.889 25.634 48.223 41.732 60.351 1.234 0.936 2.43 1.807 3.596 2.634 4e-3 0.023 0.03 0.019 0.03 0.019 1.013 0.94 2.115 1.704 3.277 2.272 5.004 2.464 4.426 1.849-0.174-0.947-1.247-6.581-2.396-13.53-3.272-20.747-5.187-42.742-4.587-120.02-4.587-120.02s19.057 74.89 24.244 117.63z"/>
		<path d="m336.39 710.95c6e-3 0.015 0.023 0.011 0.023 0.011 0.843 0.381 1.66 0.738 2.426 1.061 3.602 0.979 3.151 0.653-0.215-0.585-1.528-4.053-3.034-8.349-4.381-12.851-7.989-26.663-15.772-76.051-15.772-76.051s20.653 45.532 28.642 72.193c1.415 4.721 2.581 9.34 3.549 13.751 1.881-2.795 4.089-6.4 6.247-10.577 5.887-11.385 11.174-26.881 6.928-41.053-7.828-26.128-52.559-62.987-54.359-64.457-0.03-0.04-0.053-0.049-0.053-0.049s4e-3 0.015-4e-3 0.049c-0.63 1.977-17.802 57.56-9.955 83.742 5.023 16.774 22.217 27.734 34.247 33.562 0.919 0.452 1.813 0.865 2.677 1.254z"/>
		<path d="m115.09 551.75c-2e-3 0.015 0.015 0.019 0.015 0.019 0.594 0.711 1.17 1.387 1.719 2.015 2.813 2.453 2.549 1.966 0.062-0.619 0.396-4.315 0.921-8.836 1.674-13.474 4.468-27.475 19.051-75.296 19.051-75.296s-1.321 49.979-5.787 77.451c-0.791 4.864-1.76 9.53-2.817 13.919 2.913-1.691 6.474-3.97 10.24-6.783 10.272-7.668 21.798-19.293 24.172-33.898 4.379-26.919-19.745-79.623-20.721-81.734-0.013-0.047-0.028-0.066-0.028-0.066s-2e-3 0.015-0.026 0.042c-1.43 1.502-41.168 43.991-45.555 70.97-2.809 17.283 7.864 34.655 16.136 45.153 0.636 0.811 1.257 1.573 1.865 2.301z"/>
		<path d="m587.21 598.2c1.883-2.796 4.091-6.4 6.249-10.576 5.887-11.385 11.172-26.881 6.928-41.053-7.83-26.125-52.559-62.987-54.359-64.457-0.032-0.038-0.053-0.049-0.053-0.049s4e-3 0.015-4e-3 0.049c-0.63 1.977-17.802 57.56-9.957 83.742 5.025 16.774 22.217 27.734 34.247 33.561 0.923 0.451 1.815 0.864 2.681 1.255 4e-3 0.015 0.021 9e-3 0.021 9e-3 0.845 0.381 1.66 0.738 2.428 1.061 3.602 0.979 3.151 0.653-0.215-0.585-1.53-4.053-3.034-8.349-4.383-12.851-7.987-26.663-15.772-76.05-15.772-76.05s20.655 45.531 28.644 72.195c1.411 4.72 2.58 9.339 3.545 13.749z"/>
		<path d="m747.08 613.38c-0.032-0.038-0.053-0.047-0.053-0.047s4e-3 0.015-6e-3 0.049c-0.63 1.977-17.802 57.559-9.955 83.742 5.026 16.772 22.217 27.734 34.247 33.562 0.923 0.451 1.815 0.864 2.681 1.253 4e-3 0.015 0.021 0.011 0.021 0.011 0.843 0.378 1.66 0.736 2.426 1.06 3.604 0.979 3.151 0.655-0.215-0.583-1.528-4.053-3.032-8.351-4.381-12.851-7.989-26.664-15.772-76.051-15.772-76.051s20.655 45.532 28.645 72.194c1.413 4.719 2.579 9.34 3.549 13.751 1.881-2.796 4.089-6.402 6.247-10.577 5.885-11.387 11.17-26.88 6.928-41.055-7.832-26.127-52.562-62.988-54.362-64.458z"/>
		<path d="m785.72 210.69c0 0.019 0.017 0.022 0.017 0.022 0.625 0.817 1.234 1.595 1.813 2.315 2.928 2.743 2.638 2.164 0.034-0.775 0.2-5.394 0.523-11.06 1.068-16.895 3.234-34.56 15.677-95.448 15.677-95.448s0.932 62.14-2.298 96.699c-0.574 6.117-1.332 12.008-2.196 17.568 2.843-2.41 6.311-5.619 9.953-9.513 9.936-10.615 20.953-26.274 22.672-44.647 3.166-33.863-23.37-96.65-24.442-99.163-0.013-0.058-0.03-0.079-0.03-0.079s-4e-3 0.019-0.026 0.055c-1.362 2.017-39.236 58.991-42.41 92.93-2.032 21.74 9.44 42.142 18.198 54.278 0.673 0.936 1.328 1.815 1.97 2.653z"/>
		<path d="m204.57 415.4c-2e-3 0.015 0.021 0.019 0.021 0.019 0.762 0.743 1.504 1.451 2.206 2.108 3.587 2.602 3.24 2.098 0.057-0.621 0.345-4.323 0.843-8.851 1.623-13.485 4.621-27.449 21.136-74.909 21.136-74.909s0.066 50.251-4.555 77.7c-0.817 4.857-1.864 9.508-3.03 13.878 3.568-1.568 7.925-3.693 12.515-6.349 12.521-7.238 26.472-18.404 28.927-32.996 4.528-26.893-27.302-81.078-28.589-83.246-0.017-0.049-0.036-0.068-0.036-0.068s-4e-3 0.015-0.032 0.041c-1.728 1.447-49.734 42.361-54.272 69.314-2.906 17.268 10.974 35.253 21.63 46.211 0.818 0.845 1.618 1.641 2.399 2.403z"/>
		<path d="m263.08 602.44c1.691-3.434 3.649-7.881 5.502-13.066 5.062-14.138 9.157-33.61 3.587-52.202-10.266-34.268-59.304-85.502-61.276-87.549-0.036-0.051-0.06-0.066-0.06-0.066s6e-3 0.019 0 0.064c-0.477 2.487-13.328 72.493-3.036 106.84 6.591 22 25.164 37.568 38 46.093 0.987 0.66 1.936 1.266 2.857 1.843 6e-3 0.017 0.023 0.013 0.023 0.013 0.836 0.683 1.704 1.213 2.581 1.572 3.779 1.566 3.287 1.113-0.27-0.77-1.917-5.34-3.828-10.996-5.596-16.902-10.479-34.972-22.693-99.148-22.693-99.148s25.085 60.321 35.564 95.293c1.855 6.192 3.446 12.232 4.817 17.987z"/>
		<path d="m492.47 609.43c-6.957-23.221-14.687-65.953-14.687-65.953s17.04 39.94 23.998 63.163c1.232 4.111 2.277 8.125 3.168 11.953 1.27-2.326 2.749-5.332 4.166-8.83 3.868-9.541 7.13-22.634 3.43-34.979-6.817-22.753-41.215-56.225-42.598-57.561-0.026-0.034-0.043-0.043-0.043-0.043s4e-3 0.013-2e-3 0.043c-0.383 1.672-10.76 48.71-3.926 71.514 4.377 14.608 17.466 24.719 26.551 30.213 0.698 0.425 1.372 0.815 2.023 1.185 4e-3 0.013 0.017 8e-3 0.017 8e-3 0.636 0.362 1.251 0.702 1.828 1.011 2.689 0.987 2.345 0.689-0.181-0.511-1.289-3.541-2.57-7.292-3.744-11.213z"/>
		<path d="m627.04 242.35c0.932 0.355 1.832 0.678 2.704 0.981 4e-3 0.013 0.023 9e-3 0.023 9e-3 0.851 0.296 1.677 0.572 2.453 0.821 3.668 0.694 3.219 0.427-0.194-0.506-1.383-3.515-2.728-7.247-3.902-11.168-6.957-23.221-12.611-66.574-12.611-66.574s19.117 39.319 26.074 62.54c1.232 4.111 2.215 8.144 3 12.004 2.074-2.566 4.528-5.864 6.955-9.666 6.621-10.364 12.821-24.338 9.123-36.683-6.817-22.755-51.191-53.238-52.978-54.453-0.03-0.032-0.053-0.038-0.053-0.038s4e-3 0.012-6e-3 0.043c-0.745 1.781-21.138 51.821-14.306 74.625 4.378 14.607 21.588 23.484 33.718 28.065z"/>
		<path d="m159.85 779.59c0.013-2e-3 0.011-0.015 0.011-0.015 0.457-0.57 0.889-1.124 1.287-1.645 1.398-2.5 1.051-2.206-0.534 0.098-3.7 0.715-7.608 1.387-11.664 1.928-24.032 3.2-67.446 4.083-67.446 4.083s42.132-10.517 66.161-13.719c4.253-0.566 8.383-0.966 12.304-1.24-2.096-1.621-4.83-3.557-8.062-5.508-8.808-5.327-21.221-10.615-33.996-8.913-23.547 3.138-62.032 31.817-63.57 32.972-0.036 0.019-0.047 0.034-0.047 0.034s0.013-2e-3 0.04 9e-3c1.589 0.642 46.398 18.319 69.997 15.174 15.117-2.015 27.168-13.345 34.025-21.447 0.534-0.622 1.026-1.224 1.494-1.811z"/>
		<path d="m301.03 320.7c0.698 0.425 1.37 0.817 2.023 1.188 4e-3 0.013 0.017 8e-3 0.017 8e-3 0.634 0.362 1.249 0.7 1.828 1.01 2.689 0.985 2.345 0.689-0.183-0.513-1.287-3.54-2.57-7.292-3.745-11.213-6.957-23.223-14.685-65.953-14.685-65.953s17.04 39.94 23.998 63.161c1.23 4.112 2.277 8.127 3.168 11.953 1.27-2.323 2.749-5.33 4.166-8.83 3.868-9.539 7.128-22.632 3.43-34.977-6.817-22.755-41.215-56.225-42.6-57.561-0.023-0.034-0.04-0.043-0.04-0.043s4e-3 0.012-2e-3 0.04c-0.383 1.672-10.76 48.71-3.928 71.517 4.377 14.61 17.468 24.721 26.553 30.213z"/>
		<path d="m461.02 297.54c0.698 0.426 1.37 0.817 2.023 1.188 4e-3 0.012 0.017 8e-3 0.017 8e-3 0.634 0.36 1.249 0.7 1.828 1.009 2.689 0.987 2.343 0.691-0.183-0.511-1.289-3.54-2.57-7.294-3.745-11.215-6.957-23.221-14.685-65.951-14.685-65.951s17.038 39.94 23.998 63.161c1.23 4.111 2.277 8.126 3.166 11.953 1.272-2.323 2.751-5.332 4.168-8.83 3.868-9.54 7.128-22.632 3.43-34.976-6.817-22.755-41.217-56.227-42.6-57.561-0.023-0.036-0.04-0.045-0.04-0.045s2e-3 0.013-2e-3 0.042c-0.383 1.673-10.759 48.71-3.928 71.517 4.376 14.61 17.468 24.718 26.553 30.211z"/>
</svg>
