<?xml version="1.0" encoding="UTF-8"?>
<!DOCTYPE svg  PUBLIC '-//W3C//DTD SVG 1.1//EN'  'http://www.w3.org/Graphics/SVG/1.1/DTD/svg11.dtd'>
<svg enable-background="new 0 0 1726.761 1642.247" version="1.1" viewBox="0 0 1726.761 1642.247" xml:space="preserve" xmlns="http://www.w3.org/2000/svg">
	<path d="m22.211 632.27l173.61 340.73c22.598 44.352 61.465 75.27 105.71 89.24-43.052-14.385-80.733-44.918-102.84-88.308l-173.61-340.73 340.73-173.61c43.391-22.109 91.822-24.662 135.11-10.994-44.005-14.704-93.623-12.536-137.97 10.062l-340.73 173.61z"/>
	<path d="m863.38 21.124l-270.41 270.41c-35.198 35.198-52.592 81.717-52.206 128.11 0.377-45.39 17.771-90.662 52.206-125.1l270.41-270.41 270.41 270.41c34.435 34.435 51.829 79.707 52.206 125.1 0.385-46.395-17.009-92.914-52.206-128.11l-270.41-270.41z"/>
	<path d="m1704.6 632.27l-340.73-173.61c-44.352-22.598-93.969-24.766-137.97-10.062 43.285-13.668 91.717-11.115 135.11 10.994l340.73 173.61-173.61 340.73c-22.109 43.391-59.79 73.924-102.84 88.308 44.244-13.97 83.111-44.888 105.71-89.24l173.61-340.73z"/>
	<path d="m1383.3 1621.1l59.823-377.7c7.787-49.164-5.484-97.023-33.067-134.33 26.375 36.943 38.913 83.793 31.295 131.89l-59.823 377.7-377.7-59.823c-48.099-7.618-88.781-34.02-115.77-70.52 26.959 37.761 68.374 65.172 117.54 72.959l377.7 59.823z"/>
	<path d="m343.51 1621.1l377.7-59.823c49.164-7.787 90.58-35.198 117.54-72.959-26.985 36.5-67.667 62.902-115.77 70.52l-377.7 59.823-59.823-377.7c-7.618-48.099 4.92-94.949 31.295-131.89-27.582 37.308-40.853 85.167-33.066 134.33l59.822 377.7z"/>
	<path d="m355.38 1070.6c-18.34-0.051-36.508-2.922-53.852-8.398 16.499 5.513 33.786 8.651 51.288 9.231-13.819 10.756-25.96 23.457-36.068 37.615 10.813-14.625 23.825-27.627 38.632-38.448z"/>
	<path d="m549.42 473.45c-5.618-17.458-8.503-35.624-8.654-53.811-0.144 17.395 2.212 34.806 7.07 51.631-14.5-9.819-30.331-17.441-46.919-22.679 17.25 5.763 33.636 14.121 48.503 24.859z"/>
	<path d="m1177.3 473.45c14.867-10.738 31.253-19.095 48.503-24.859-16.588 5.238-32.419 12.86-46.919 22.679 4.858-16.825 7.214-34.236 7.07-51.631-0.151 18.186-3.036 36.353-8.654 53.811z"/>
	<path d="m1371.4 1070.6c14.807 10.821 27.819 23.823 38.631 38.447-10.108-14.158-22.248-26.858-36.068-37.615 17.503-0.579 34.79-3.718 51.288-9.231-17.342 5.477-35.511 8.348-53.851 8.399z"/>
	<path d="m863.38 1439.7c-5.716 17.426-14.06 33.819-24.628 48.621 10.341-13.988 18.669-29.459 24.628-45.926 5.96 16.467 14.287 31.938 24.628 45.926-10.567-14.803-18.911-31.195-24.628-48.621z"/>
	<path d="m27.945 634.13l170.71 335.04c33.014 64.793 100.74 100.94 169.24 97.406-57.494 37.41-91.043 106.46-79.667 178.28l58.822 371.39 371.39-58.822c71.824-11.376 127.13-64.62 144.94-130.86 17.813 66.24 73.114 119.48 144.94 130.86l371.39 58.822 58.822-371.39c11.376-71.824-22.174-140.87-79.667-178.28 68.502 3.529 136.23-32.613 169.24-97.406l170.71-335.04-335.04-170.71c-64.793-33.014-140.83-22.444-194.18 20.676 24.524-64.059 11.081-139.64-40.34-191.06l-265.88-265.88-265.88 265.88c-51.42 51.42-64.864 127-40.34 191.06-53.346-43.119-129.38-53.69-194.18-20.676l-335.04 170.71zm358.68 426.36c-73.112 9.593-147.98-26.919-183.24-96.125l-166.84-327.44 327.44-166.84c69.205-35.262 151.23-20.796 204.74 29.939-31.716-66.569-20.126-149.05 34.796-203.98l259.86-259.86 259.86 259.86c54.922 54.922 66.513 137.41 34.796 203.98 53.51-50.735 135.54-65.201 204.74-29.939l327.44 166.84-166.84 327.44c-35.262 69.206-110.13 105.72-183.24 96.125 64.787 35.213 103.89 108.76 91.743 185.47l-57.488 362.97-362.97-57.488c-76.715-12.151-134.58-72.068-148.04-144.57-13.469 72.498-71.329 132.42-148.04 144.57l-362.97 57.488-57.488-362.97c-12.15-76.714 26.955-150.26 91.743-185.47z"/>
	<path d="m48.014 640.65l161.03 316.04c27.745 54.453 80.011 88.664 136.65 96.105-44.797-13.766-84.221-44.859-107.05-89.657l-0.084-0.166c-5.324-7.363-10.148-15.222-14.395-23.557l-147.49-289.45 289.45-147.48c8.335-4.247 16.857-7.769 25.492-10.597l0.166-0.084c44.798-22.826 94.968-24.808 139.3-9.614-50.194-27.27-112.59-30.314-167.04-2.569l-316.04 161.03z"/>
	<path d="m863.38 48.254l-250.81 250.81c-43.214 43.214-59.599 103.49-49.175 159.66-0.751-46.859 16.638-93.961 52.19-129.51l0.132-0.132c5.358-7.339 11.341-14.355 17.956-20.97l229.71-229.71 229.71 229.71c6.615 6.615 12.598 13.632 17.956 20.97l0.132 0.132c35.552 35.552 52.941 82.654 52.19 129.51 10.424-56.164-5.961-116.44-49.175-159.66l-250.81-250.81z"/>
	<path d="m1678.7 640.65l-316.04-161.03c-54.453-27.745-116.85-24.701-167.04 2.569 44.333-15.194 94.504-13.212 139.3 9.614l0.166 0.084c8.635 2.828 17.157 6.35 25.492 10.597l289.45 147.48-147.48 289.45c-4.247 8.335-9.072 16.193-14.395 23.557l-0.084 0.166c-22.826 44.798-62.249 75.891-107.05 89.657 56.636-7.442 108.9-41.652 136.65-96.105l161.03-316.04z"/>
	<path d="m1367.3 1599.2l55.488-350.34c9.56-60.362-12.615-118.76-54.061-158.07 28.15 37.468 41.768 85.796 33.903 135.45l-0.029 0.184c-0.021 9.086-0.737 18.28-2.2 27.519l-50.819 320.86-320.86-50.819c-9.24-1.463-18.204-3.623-26.852-6.411l-0.184-0.029c-49.659-7.865-91.413-35.751-118.35-74.102 24.579 51.565 73.266 90.701 133.63 100.26l350.34 55.488z"/>
	<path d="m359.46 1599.2l350.34-55.488c60.362-9.56 109.05-48.697 133.63-100.26-26.935 38.351-68.689 66.236-118.35 74.102l-0.184 0.029c-8.648 2.788-17.613 4.948-26.852 6.411l-320.86 50.819-50.819-320.86c-1.463-9.24-2.179-18.433-2.2-27.519l-0.029-0.184c-7.865-49.659 5.753-97.986 33.903-135.45-41.446 39.311-63.621 97.709-54.061 158.07l55.487 350.34z"/>
	<path d="m467.8 1034.1c-0.658-0.04-1.316-0.083-1.973-0.13l-4.178 2.129 4.631-0.734c0.505-0.424 1.011-0.846 1.52-1.265z"/>
	<path d="m618.9 569.08c-0.165-0.638-0.327-1.277-0.486-1.917l-3.316-3.316 2.129 4.178c0.559 0.349 1.117 0.7 1.673 1.055z"/>
	<path d="m1107.9 569.08c0.556-0.354 1.113-0.706 1.673-1.054l2.129-4.178-3.316 3.316c-0.158 0.639-0.32 1.278-0.486 1.916z"/>
	<path d="m1259 1034.1c0.509 0.419 1.015 0.841 1.52 1.265l4.631 0.734-4.178-2.129c-0.657 0.047-1.315 0.09-1.973 0.13z"/>
	<path d="m863.38 1321.5c-0.241 0.614-0.486 1.225-0.734 1.836l0.734 4.631 0.734-4.631c-0.248-0.61-0.492-1.222-0.734-1.836z"/>
	<path d="m448.69 1040.3l13.1-6.675c-2.558-0.24-5.108-0.538-7.649-0.887l-4.276 2.179c-33.288 16.961-69.544 22.409-104.17 17.86 13.364 4.107 27.205 6.668 41.229 7.592-10.802 8.99-20.494 19.198-28.892 30.375 25.337-24.032 57.87-40.935 94.771-46.779l4.741-0.751c1.851-1.776 3.739-3.516 5.667-5.214l-14.524 2.3z"/>
	<path d="m607.08 552.82l10.396 10.396c-0.562-2.507-1.066-5.024-1.52-7.549l-3.394-3.394c-26.418-26.418-42.803-59.215-49.175-93.55 0.224 13.979 2.065 27.934 5.52 41.557-11.888-7.495-24.591-13.559-37.817-18.092 30.685 16.67 56.814 42.388 73.775 75.677l2.179 4.276c2.261 1.212 4.499 2.469 6.71 3.778l-6.674-13.099z"/>
	<path d="m1119.7 552.82l-6.675 13.1c2.211-1.309 4.449-2.567 6.71-3.778l2.179-4.276c16.961-33.288 43.09-59.006 73.775-75.677-13.226 4.533-25.929 10.596-37.817 18.092 3.455-13.623 5.296-27.578 5.52-41.557-6.372 34.334-22.757 67.132-49.175 93.55l-3.394 3.394c-0.454 2.525-0.958 5.042-1.52 7.549l10.397-10.397z"/>
	<path d="m1278.1 1040.3l-14.522-2.3c1.928 1.698 3.816 3.438 5.667 5.214l4.74 0.751c36.901 5.844 69.434 22.748 94.771 46.779-8.398-11.178-18.09-21.385-28.892-30.375 14.024-0.924 27.864-3.485 41.229-7.592-34.623 4.549-70.879-0.898-104.17-17.86l-4.276-2.179c-2.542 0.349-5.091 0.647-7.649 0.887l13.099 6.675z"/>
	<path d="m863.38 1341.6l-2.3-14.522c-1.019 2.358-2.09 4.691-3.208 7.001l0.751 4.741c5.844 36.901-0.178 73.065-15.204 104.59 8.035-11.441 14.748-23.813 19.961-36.865 5.212 13.052 11.925 25.424 19.961 36.865-15.026-31.523-21.048-67.687-15.204-104.59l0.751-4.741c-1.117-2.309-2.188-4.642-3.208-7.001l-2.3 14.522z"/>
	<path d="m79.55 650.9l159.01 312.08c44.692 61.817 124.78 88.567 197.51 66.365-17.257-4.188-33.867-10.903-49.221-19.949-59.008-5.678-114.11-40.375-142.87-96.816l-127.16-249.57 249.57-127.16c56.441-28.758 121.41-24.441 172.49 5.649 17.739 1.707 35.123 6.038 51.546 12.793-45.793-60.713-126.3-86.144-198.8-62.403l-312.08 159.01z"/>
	<path d="m863.38 81.414l-247.67 247.67c-44.981 61.607-45.674 146.04-2.083 208.35-1.35-17.707-0.096-35.578 3.762-52.977-12.835-57.874 3.137-121 47.929-165.79l198.06-198.06 198.06 198.06c44.792 44.792 60.764 107.92 47.929 165.79 3.858 17.398 5.111 35.27 3.762 52.977 43.591-62.313 42.898-146.74-2.083-208.35l-247.67-247.67z"/>
	<path d="m1647.2 650.9l-312.08-159.01c-72.492-23.741-153 1.69-198.8 62.403 16.423-6.755 33.807-11.086 51.546-12.793 51.075-30.09 116.05-34.408 172.49-5.649l249.57 127.16-127.16 249.57c-28.758 56.441-83.86 91.139-142.87 96.816-15.355 9.046-31.964 15.76-49.221 19.949 72.733 22.202 152.82-4.548 197.51-66.365l159.01-312.08z"/>
	<path d="m1347.8 1572.3l54.792-345.94c0.178-76.28-48.888-144.99-120.78-169.78 11.5 13.532 20.99 28.727 28.095 45.07 44.401 39.277 68.584 99.736 58.675 162.3l-43.817 276.65-276.65-43.817c-62.566-9.91-112.59-51.592-136.23-105.96-13.348-11.808-24.866-25.529-34.182-40.648 1.361 76.034 51.548 143.93 124.15 167.33l345.94 54.792z"/>
	<path d="m378.95 1572.3l345.94-54.792c72.602-23.402 122.79-91.3 124.15-167.33-9.316 15.119-20.834 28.84-34.182 40.648-23.634 54.365-73.66 96.048-136.23 105.96l-276.65 43.817-43.817-276.65c-9.909-62.566 14.274-123.02 58.675-162.3 7.105-16.344 16.596-31.538 28.095-45.07-71.892 24.79-120.96 93.503-120.78 169.78l54.793 345.94z"/>
	<path d="m168.43 679.78l100.06 196.39c12.319 24.178 29.479 44.356 49.702 59.984l-126.83-248.92 248.92-126.83c-25.546 0.756-51.29 6.995-75.467 19.314l-196.39 100.06z"/>
	<path d="m863.38 174.86l-155.86 155.86c-19.188 19.187-33.076 41.743-41.689 65.805l197.54-197.54 197.54 197.54c-8.613-24.062-22.502-46.618-41.689-65.805l-155.86-155.86z"/>
	<path d="m1558.3 679.78l-196.39-100.06c-24.178-12.319-49.921-18.558-75.467-19.314l248.92 126.83-126.83 248.92c20.223-15.627 37.383-35.806 49.702-59.984l100.06-196.39z"/>
	<path d="m1292.9 1496.7l34.48-217.7c4.245-26.801 2.223-53.212-4.952-77.742l-43.703 275.93-275.93-43.703c21.112 14.404 45.605 24.489 72.407 28.733l217.7 34.481z"/>
	<path d="m433.88 1496.7l217.7-34.48c26.801-4.245 51.295-14.329 72.407-28.733l-275.93 43.703-43.703-275.93c-7.175 24.529-9.197 50.941-4.952 77.742l34.479 217.7z"/>
	<path d="m597.95 991.82c-5.672-0.467-11.31-1.203-16.896-2.2l-41.657 21.225 46.178-7.314c3.932-4.089 8.061-7.999 12.375-11.711z"/>
	<path d="m699.34 679.8c-1.308-5.539-2.351-11.128-3.128-16.749l-33.06-33.059 21.226 41.657c5.104 2.477 10.098 5.196 14.962 8.151z"/>
	<path d="m1027.4 679.8c4.863-2.956 9.857-5.674 14.962-8.151l21.225-41.657-33.059 33.059c-0.777 5.621-1.82 11.211-3.128 16.749z"/>
	<path d="m1128.8 991.82c4.314 3.712 8.443 7.621 12.376 11.711l46.178 7.314-41.657-21.225c-5.587 0.997-11.225 1.733-16.897 2.2z"/>
	<path d="m863.38 1184.7c-2.197 5.25-4.639 10.385-7.314 15.389l7.314 46.178 7.314-46.178c-2.674-5.004-5.116-10.139-7.314-15.389z"/>
	<path d="m487.56 1027.7l80.33-40.93c-1.034-0.265-2.067-0.532-3.095-0.815l-90.194 45.956 99.98-15.835c0.666-0.834 1.345-1.657 2.025-2.479l-89.046 14.103z"/>
	<path d="m631.11 585.89l63.75 63.75c-0.067-1.065-0.133-2.13-0.181-3.196l-71.578-71.578 45.956 90.194c0.999 0.376 1.991 0.767 2.983 1.16l-40.93-80.33z"/>
	<path d="m1095.6 585.89l-40.93 80.33c0.992-0.393 1.985-0.784 2.983-1.16l45.956-90.194-71.578 71.578c-0.049 1.066-0.114 2.131-0.181 3.196l63.75-63.75z"/>
	<path d="m1239.2 1027.7l-89.046-14.104c0.681 0.822 1.359 1.645 2.025 2.479l99.98 15.835-90.194-45.956c-1.029 0.283-2.062 0.55-3.096 0.815l80.331 40.931z"/>
	<path d="m863.38 1300.7l-14.104-89.046c-0.571 0.901-1.145 1.801-1.732 2.692l15.835 99.98 15.835-99.98c-0.587-0.891-1.16-1.791-1.732-2.692l-14.102 89.046z"/>
	<path d="m558.85 984.19l-97.067 49.458c1.344 0.126 2.689 0.239 4.037 0.335l95.968-48.898c-0.982-0.288-1.961-0.589-2.938-0.895z"/>
	<path d="m844.04 1219.5l17.042 107.6c0.535-1.239 1.059-2.484 1.566-3.736l-16.849-106.38c-0.577 0.845-1.166 1.682-1.759 2.517z"/>
	<path d="m1156 1021l107.6 17.042c-1.013-0.892-2.035-1.774-3.069-2.644l-106.38-16.849c0.625 0.811 1.239 1.63 1.85 2.451z"/>
	<path d="m1063.5 662.99l49.458-97.067c-1.161 0.688-2.316 1.387-3.463 2.102l-48.898 95.968c0.964-0.345 1.933-0.676 2.903-1.003z"/>
	<path d="m694.51 640.25l-77.033-77.033c0.295 1.317 0.604 2.632 0.929 3.943l76.16 76.16c-0.028-1.023-0.044-2.047-0.056-3.07z"/>
	<path d="m663.22 662.99l-49.458-97.067c1.161 0.688 2.316 1.387 3.463 2.102l48.898 95.968c-0.964-0.345-1.933-0.676-2.903-1.003z"/>
	<path d="m570.81 1021l-107.6 17.042c1.013-0.892 2.035-1.774 3.069-2.644l106.38-16.849c-0.625 0.811-1.239 1.63-1.85 2.451z"/>
	<path d="m882.72 1219.5l-17.042 107.6c-0.535-1.239-1.059-2.484-1.566-3.736l16.849-106.38c0.577 0.845 1.166 1.682 1.759 2.517z"/>
	<path d="m1167.9 984.19l97.067 49.458c-1.344 0.126-2.689 0.239-4.037 0.335l-95.968-48.898c0.983-0.288 1.961-0.589 2.938-0.895z"/>
	<path d="m1032.2 640.25l77.033-77.033c-0.295 1.317-0.604 2.632-0.929 3.943l-76.16 76.16c0.028-1.023 0.044-2.047 0.056-3.07z"/>
	<path d="m542.46 978.19l-77.478 39.477c-9.433 4.806-19.105 8.683-28.911 11.676 5.953 1.445 11.983 2.584 18.065 3.419l99.011-50.449c-3.604-1.258-7.166-2.639-10.687-4.123z"/>
	<path d="m833.26 1233.2l13.603 85.885c1.656 10.457 2.354 20.854 2.171 31.104 3.214-5.215 6.161-10.598 8.834-16.125l-17.383-109.75c-2.312 3.04-4.725 6.001-7.225 8.89z"/>
	<path d="m1165.7 1035.5l85.885 13.603c10.457 1.656 20.56 4.205 30.252 7.547-3.967-4.668-8.176-9.134-12.605-13.385l-109.75-17.383c2.177 3.137 4.247 6.348 6.222 9.618z"/>
	<path d="m1080.3 658.21l39.477-77.478c4.806-9.433 10.353-18.255 16.526-26.439-5.666 2.33-11.214 4.953-16.625 7.852l-50.448 99.011c3.656-1.101 7.349-2.078 11.07-2.946z"/>
	<path d="m695.16 622.81l-61.487-61.487c-7.486-7.486-14.162-15.487-20.039-23.887 0.466 6.108 1.245 12.195 2.331 18.238l78.575 78.575c0.084-3.818 0.296-7.633 0.62-11.439z"/>
	<path d="m646.43 658.21l-39.477-77.478c-4.806-9.433-10.353-18.255-16.526-26.439 5.665 2.33 11.214 4.953 16.625 7.852l50.449 99.011c-3.657-1.101-7.35-2.078-11.071-2.946z"/>
	<path d="m561.07 1035.5l-85.885 13.603c-10.457 1.656-20.56 4.205-30.252 7.547 3.967-4.668 8.176-9.134 12.605-13.385l109.75-17.383c-2.177 3.137-4.247 6.348-6.222 9.618z"/>
	<path d="m893.5 1233.2l-13.603 85.885c-1.656 10.457-2.354 20.854-2.171 31.104-3.214-5.215-6.161-10.598-8.834-16.125l17.383-109.75c2.312 3.04 4.725 6.001 7.225 8.89z"/>
	<path d="m1184.3 978.19l77.478 39.477c9.433 4.806 19.106 8.683 28.911 11.676-5.953 1.445-11.983 2.584-18.065 3.419l-99.011-50.449c3.604-1.258 7.167-2.639 10.687-4.123z"/>
	<path d="m1031.6 622.81l61.487-61.487c7.486-7.486 14.162-15.487 20.039-23.887-0.466 6.108-1.245 12.195-2.331 18.238l-78.576 78.575c-0.082-3.818-0.294-7.633-0.619-11.439z"/>
	<path d="m525.6 970.04c-7.217-3.968-14.174-8.446-20.819-13.401-62.543 29.69-134.67 19.628-186.58-20.485l0.33 0.648c15.948 31.3 40.001 55.909 68.326 72.596 32.723 3.149 66.647-2.622 97.948-18.571l40.798-20.787z"/>
	<path d="m820.3 1246.8c-6.004 5.638-12.413 10.87-19.178 15.659 8.91 68.657-22.949 134.15-77.14 171.12l0.718-0.114c34.697-5.495 65.534-20.767 90.157-42.548 13.107-30.149 18.101-64.196 12.606-98.892l-7.163-45.226z"/>
	<path d="m1174.5 1052c3.506 7.452 6.502 15.164 8.966 23.078 68.049 12.742 120.49 63.28 138.91 126.24l0.114-0.719c5.495-34.697 0.501-68.744-12.606-98.892-24.623-21.782-55.46-37.053-90.157-42.548l-45.225-7.163z"/>
	<path d="m1098.8 654.89c8.171-1.032 16.431-1.498 24.72-1.396 33.147-60.781 97.416-95.039 162.99-93.098l-0.648-0.33c-31.3-15.948-65.224-21.719-97.948-18.571-28.325 16.687-52.377 41.296-68.326 72.596l-20.788 40.799z"/>
	<path d="m697.7 604.25c1.544-8.09 3.653-16.09 6.311-23.941-47.563-50.307-60.284-122.02-38.175-183.78l-0.514 0.514c-24.84 24.84-40.812 55.32-47.929 87.415 7.117 32.095 23.089 62.575 47.929 87.415l32.378 32.379z"/>
	<path d="m627.99 654.89c-8.171-1.032-16.431-1.498-24.72-1.396-33.147-60.781-97.416-95.039-162.99-93.098l0.648-0.33c31.3-15.948 65.224-21.719 97.948-18.571 28.325 16.687 52.377 41.296 68.326 72.596l20.788 40.799z"/>
	<path d="m552.22 1052c-3.506 7.452-6.502 15.164-8.966 23.078-68.05 12.742-120.49 63.28-138.91 126.24l-0.114-0.719c-5.495-34.697-0.501-68.744 12.606-98.892 24.623-21.782 55.46-37.053 90.157-42.548l45.225-7.163z"/>
	<path d="m906.46 1246.8c6.004 5.638 12.413 10.87 19.178 15.659-8.91 68.657 22.949 134.15 77.14 171.12l-0.718-0.114c-34.697-5.495-65.534-20.767-90.157-42.548-13.107-30.149-18.101-64.196-12.606-98.892l7.163-45.226z"/>
	<path d="m1201.2 970.04c7.217-3.968 14.174-8.446 20.819-13.401 62.543 29.69 134.67 19.628 186.58-20.485l-0.33 0.648c-15.948 31.3-40.001 55.909-68.326 72.596-32.723 3.149-66.647-2.622-97.948-18.571l-40.798-20.787z"/>
	<path d="m1029.1 604.25c-1.544-8.09-3.653-16.09-6.311-23.941 47.563-50.307 60.284-122.02 38.175-183.78l0.514 0.514c24.84 24.84 40.812 55.32 47.929 87.415-7.118 32.095-23.089 62.575-47.929 87.415l-32.378 32.379z"/>
	<path d="m240.1 703.07l65.227 128.02c33.067 64.898 100.96 101.04 169.58 97.384-8.52-10.147-16.026-21.397-22.283-33.678l-11.108-21.801c-40.389-15.186-75.467-44.818-96.481-86.059l-30.389-59.642 59.642-30.389c41.241-21.013 87.037-24.367 128.64-12.913l21.801-11.108c12.281-6.257 24.965-10.947 37.823-14.148-53.359-43.292-129.53-53.956-194.43-20.889l-128.02 65.228z"/>
	<path d="m863.38 250.23l-101.59 101.59c-51.503 51.503-64.901 127.24-40.216 191.37 7.018-11.239 15.398-21.854 25.143-31.6l17.302-17.302c1.962-43.105 19.304-85.623 52.033-118.35l47.332-47.332 47.332 47.332c32.729 32.729 50.07 75.247 52.033 118.35l17.302 17.302c9.746 9.746 18.126 20.361 25.143 31.6 24.685-64.126 11.287-139.87-40.216-191.37l-101.6-101.59z"/>
	<path d="m1486.7 703.07l-128.02-65.227c-64.898-33.067-141.07-22.404-194.43 20.889 12.858 3.201 25.542 7.891 37.823 14.148l21.801 11.108c41.602-11.454 87.398-8.1 128.64 12.913l59.642 30.389-30.389 59.642c-21.013 41.241-56.092 70.873-96.481 86.059l-11.108 21.801c-6.257 12.281-13.763 23.53-22.284 33.678 68.615 3.661 136.51-32.487 169.58-97.384l65.227-128.02z"/>
	<path d="m1248.6 1435.8l22.476-141.91c11.394-71.939-22.286-141.09-79.949-178.46 0.929 13.218 0.389 26.731-1.768 40.344l-3.828 24.167c23.749 36.026 34.711 80.617 27.47 126.33l-10.471 66.113-66.114-10.471c-45.716-7.241-84.737-31.446-111.66-65.165l-24.167-3.828c-13.613-2.156-26.632-5.818-38.915-10.786 17.722 66.388 73.08 119.79 145.02 131.18l141.91 22.476z"/>
	<path d="m478.17 1435.8l141.91-22.476c71.94-11.394 127.3-64.795 145.02-131.18-12.284 4.968-25.302 8.63-38.915 10.786l-24.167 3.828c-26.924 33.719-65.945 57.924-111.66 65.165l-66.113 10.471-10.471-66.113c-7.241-45.716 3.721-90.307 27.47-126.33l-3.828-24.167c-2.156-13.613-2.696-27.126-1.768-40.344-57.663 37.37-91.343 106.52-79.949 178.46l22.476 141.91z"/>
	<path d="m725.86 950.26c-9.255-1.319-18.381-3.386-27.283-6.167l-81.425 41.488 90.261-14.296c5.567-7.482 11.735-14.518 18.447-21.025z"/>
	<path d="m778.39 788.6c-1.605-9.21-2.46-18.528-2.566-27.854l-64.62-64.62 41.488 81.425c8.837 2.983 17.435 6.676 25.698 11.049z"/>
	<path d="m948.37 788.6c8.263-4.373 16.861-8.065 25.697-11.048l41.488-81.425-64.62 64.62c-0.105 9.325-0.959 18.643-2.565 27.853z"/>
	<path d="m1000.9 950.26c6.712 6.507 12.881 13.543 18.448 21.026l90.261 14.296-81.425-41.488c-8.903 2.78-18.029 4.847-27.284 6.166z"/>
	<path d="m863.38 1050.2c-4.115 8.395-8.9 16.435-14.296 24.042l14.296 90.261 14.296-90.261c-5.396-7.607-10.181-15.647-14.296-24.042z"/>
	<path d="m567.89 986.76c4.349 1.115 8.739 2.072 13.164 2.862l101.17-51.548c-3.321-1.416-6.598-2.939-9.828-4.562l-104.5 53.248z"/>
	<path d="m849.28 1211.7c2.404-3.791 4.671-7.671 6.79-11.636l-17.762-112.15c-2.373 2.721-4.834 5.367-7.375 7.938l18.347 115.84z"/>
	<path d="m1150.2 1013.6c-2.863-3.458-5.852-6.813-8.968-10.053l-112.15-17.762c1.854 3.098 3.611 6.256 5.27 9.467l115.84 18.348z"/>
	<path d="m1054.7 666.22c-4.174 1.654-8.288 3.461-12.332 5.422l-51.548 101.17c3.519-0.806 7.065-1.501 10.633-2.087l53.247-104.5z"/>
	<path d="m694.86 649.64c0.283 4.481 0.73 8.952 1.346 13.404l80.288 80.288c0.321-3.596 0.756-7.183 1.301-10.757l-82.935-82.935z"/>
	<path d="m672.04 666.22c4.174 1.654 8.288 3.461 12.332 5.422l51.548 101.17c-3.519-0.806-7.065-1.501-10.633-2.087l-53.247-104.5z"/>
	<path d="m576.61 1013.6c2.863-3.458 5.852-6.813 8.968-10.053l112.15-17.762c-1.854 3.098-3.611 6.256-5.27 9.467l-115.84 18.348z"/>
	<path d="m877.48 1211.7c-2.404-3.791-4.671-7.671-6.79-11.636l17.762-112.15c2.373 2.721 4.834 5.367 7.375 7.938l-18.347 115.84z"/>
	<path d="m1158.9 986.76c-4.349 1.115-8.739 2.072-13.164 2.862l-101.17-51.548c3.321-1.416 6.598-2.939 9.828-4.562l104.5 53.248z"/>
	<path d="m1031.9 649.64c-0.283 4.481-0.73 8.952-1.346 13.404l-80.288 80.288c-0.321-3.596-0.756-7.183-1.301-10.757l82.935-82.935z"/>
	<path d="m561.79 985.09c1 0.294 2.002 0.583 3.007 0.86l105.25-53.626c-0.767-0.4-1.526-0.816-2.287-1.227l-105.97 53.993z"/>
	<path d="m845.8 1217c0.589-0.86 1.173-1.724 1.747-2.594l-18.478-116.67c-0.617 0.606-1.247 1.199-1.874 1.796l18.605 117.46z"/>
	<path d="m1154.1 1018.5c-0.636-0.826-1.277-1.649-1.927-2.463l-116.67-18.478c0.385 0.774 0.755 1.557 1.129 2.337l117.46 18.604z"/>
	<path d="m1060.6 663.99c-0.982 0.35-1.962 0.705-2.938 1.072l-53.626 105.25c0.855-0.127 1.714-0.237 2.571-0.352l53.993-105.97z"/>
	<path d="m694.57 643.32c0.029 1.042 0.064 2.084 0.111 3.126l83.524 83.524c0.143-0.853 0.304-1.703 0.46-2.554l-84.095-84.096z"/>
	<path d="m666.12 663.99c0.982 0.35 1.962 0.705 2.938 1.072l53.626 105.25c-0.855-0.127-1.714-0.237-2.571-0.352l-53.993-105.97z"/>
	<path d="m572.66 1018.5c0.636-0.826 1.277-1.649 1.927-2.463l116.67-18.478c-0.385 0.774-0.755 1.557-1.129 2.337l-117.46 18.604z"/>
	<path d="m880.96 1217c-0.589-0.86-1.173-1.724-1.747-2.594l18.478-116.67c0.617 0.606 1.247 1.199 1.874 1.796l-18.605 117.46z"/>
	<path d="m1165 985.09c-1 0.294-2.002 0.583-3.007 0.86l-105.25-53.626c0.767-0.4 1.526-0.816 2.287-1.227l105.97 53.993z"/>
	<path d="m1032.2 643.32c-0.029 1.042-0.064 2.084-0.111 3.126l-83.524 83.524c-0.143-0.853-0.304-1.703-0.46-2.554l84.095-84.096z"/>
	<path d="m661.11 927.3l-107.96 55.009c1.891 0.66 3.794 1.28 5.706 1.878l106.64-54.339c-1.476-0.827-2.938-1.678-4.39-2.548z"/>
	<path d="m821.54 1104.7l18.955 119.68c1.212-1.594 2.39-3.213 3.549-4.846l-18.724-118.22c-1.242 1.148-2.504 2.275-3.78 3.387z"/>
	<path d="m1039.8 1006.9l119.68 18.955c-1.141-1.645-2.317-3.266-3.512-4.873l-118.22-18.724c0.707 1.536 1.39 3.084 2.053 4.642z"/>
	<path d="m1014.3 769.12l55.009-107.96c-1.917 0.577-3.822 1.194-5.719 1.835l-54.339 106.64c1.68-0.199 3.363-0.37 5.049-0.519z"/>
	<path d="m780.22 719.92l-85.679-85.679c-0.044 2.002-0.045 4.004-0.022 6.007l84.634 84.634c0.33-1.658 0.687-3.312 1.067-4.962z"/>
	<path d="m712.51 769.12l-55.009-107.96c1.918 0.577 3.822 1.194 5.72 1.835l54.339 106.64c-1.681-0.199-3.364-0.37-5.05-0.519z"/>
	<path d="m686.97 1006.9l-119.68 18.955c1.141-1.645 2.317-3.266 3.512-4.873l118.22-18.724c-0.707 1.536-1.39 3.084-2.053 4.642z"/>
	<path d="m905.23 1104.7l-18.955 119.68c-1.212-1.594-2.39-3.213-3.549-4.846l18.724-118.22c1.242 1.148 2.504 2.275 3.78 3.387z"/>
	<path d="m1065.7 927.3l107.96 55.009c-1.891 0.66-3.794 1.28-5.706 1.878l-106.64-54.339c1.475-0.827 2.937-1.678 4.389-2.548z"/>
	<path d="m946.54 719.92l85.679-85.679c0.044 2.002 0.045 4.004 0.023 6.007l-84.634 84.634c-0.331-1.658-0.688-3.312-1.068-4.962z"/>
	<path d="m639.52 911.99l-113.92 58.046c5.481 3.014 11.114 5.729 16.864 8.154l110.31-56.207c-4.564-3.105-8.988-6.439-13.255-9.993z"/>
	<path d="m800.3 1120.5l20.001 126.28c4.56-4.282 8.883-8.799 12.966-13.519l-19.367-122.28c-4.364 3.38-8.901 6.558-13.6 9.518z"/>
	<path d="m1048.3 1032l126.28 20.001c-2.663-5.66-5.624-11.167-8.85-16.509l-122.28-19.367c1.866 5.194 3.486 10.491 4.849 15.875z"/>
	<path d="m1040.7 768.81l58.046-113.92c-6.206 0.784-12.359 1.898-18.436 3.316l-56.207 110.31c5.517-0.17 11.056-0.074 16.597 0.293z"/>
	<path d="m788.11 694.66l-90.408-90.408c-1.172 6.144-2.014 12.34-2.544 18.558l87.544 87.544c1.544-5.3 3.347-10.538 5.408-15.694z"/>
	<path d="m686.04 768.81l-58.046-113.92c6.206 0.784 12.359 1.898 18.436 3.316l56.207 110.31c-5.517-0.17-11.056-0.074-16.597 0.293z"/>
	<path d="m678.5 1032l-126.28 20.001c2.663-5.66 5.624-11.167 8.85-16.509l122.28-19.367c-1.867 5.194-3.487 10.491-4.85 15.875z"/>
	<path d="m926.46 1120.5l-20.001 126.28c-4.56-4.282-8.883-8.799-12.966-13.519l19.367-122.28c4.364 3.38 8.902 6.558 13.6 9.518z"/>
	<path d="m1087.2 911.99l113.92 58.046c-5.482 3.014-11.114 5.729-16.864 8.154l-110.31-56.207c4.564-3.105 8.988-6.439 13.255-9.993z"/>
	<path d="m938.65 694.66l90.408-90.408c1.172 6.144 2.014 12.34 2.544 18.558l-87.544 87.544c-1.544-5.3-3.347-10.538-5.408-15.694z"/>
	<path d="m623.15 896.4c-5.354-5.825-10.345-12.067-14.916-18.716l-62.095 31.639c-22.844 11.64-47.086 17.85-71.239 19.139 8.929 10.634 18.978 20.047 29.873 28.169 1.515-0.719 3.026-1.457 4.53-2.223l113.85-58.008z"/>
	<path d="m780.42 1131.2c-7.194 3.292-14.673 6.11-22.409 8.402l10.902 68.833c4.011 25.323 2.426 50.297-3.812 73.666 12.873-5.206 24.93-11.854 36.022-19.706-0.216-1.663-0.451-3.328-0.714-4.995l-19.989-126.2z"/>
	<path d="m1052.3 1054.2c0.908 7.859 1.277 15.843 1.066 23.909l68.833 10.902c25.323 4.011 48.586 13.235 68.883 26.39-0.973-13.851-3.57-27.373-7.61-40.348-1.649-0.309-3.304-0.6-4.971-0.864l-126.2-19.989z"/>
	<path d="m1063.1 771.8c7.755 1.565 15.463 3.682 23.068 6.374l31.639-62.095c11.64-22.844 27.601-42.118 46.384-57.357-13.474-3.355-27.137-5.063-40.725-5.231-0.803 1.473-1.592 2.957-2.358 4.461l-58.008 113.85z"/>
	<path d="m797.88 674.28c3.885-6.892 8.28-13.568 13.19-19.969l-49.279-49.279c-18.129-18.129-31.527-39.266-40.216-61.838-7.354 11.778-13.201 24.244-17.559 37.115 1.152 1.219 2.321 2.428 3.514 3.621l90.35 90.35z"/>
	<path d="m663.64 771.8c-7.755 1.565-15.462 3.682-23.068 6.374l-31.639-62.095c-11.64-22.844-27.601-42.118-46.384-57.357 13.474-3.355 27.137-5.063 40.725-5.231 0.803 1.473 1.592 2.957 2.358 4.461l58.008 113.85z"/>
	<path d="m674.43 1054.2c-0.908 7.859-1.277 15.843-1.066 23.909l-68.833 10.902c-25.323 4.011-48.585 13.235-68.883 26.39 0.973-13.851 3.57-27.373 7.61-40.348 1.649-0.309 3.304-0.6 4.971-0.864l126.2-19.989z"/>
	<path d="m946.34 1131.2c7.194 3.292 14.673 6.11 22.409 8.402l-10.902 68.833c-4.011 25.323-2.426 50.297 3.812 73.666-12.873-5.206-24.93-11.854-36.022-19.706 0.216-1.663 0.45-3.328 0.714-4.995l19.989-126.2z"/>
	<path d="m1103.6 896.4c5.354-5.825 10.345-12.067 14.916-18.716l62.095 31.639c22.844 11.64 47.086 17.85 71.239 19.139-8.929 10.634-18.978 20.047-29.873 28.169-1.515-0.719-3.026-1.457-4.53-2.223l-113.85-58.008z"/>
	<path d="m928.89 674.28c-3.885-6.892-8.28-13.568-13.19-19.969l49.279-49.279c18.129-18.129 31.527-39.266 40.216-61.838 7.354 11.778 13.201 24.244 17.559 37.115-1.152 1.219-2.321 2.428-3.514 3.621l-90.35 90.35z"/>
	<path d="m585.85 865.17l11.416-5.817c-0.163-0.316-0.334-0.626-0.496-0.943l-11.091-21.767c-47.26 12.28-96.996 4.328-137.71-20.116-17.496-6.33-34.029-15.356-48.905-26.851l42.447 83.306c45.542 17.124 97.835 15.881 144.34-7.812z"/>
	<path d="m739.19 1157l-2.004-12.654c-0.351 0.058-0.699 0.125-1.05 0.18l-24.128 3.822c-2.925 48.742-25.857 93.587-61.685 124.75-11.427 14.683-25.12 27.619-40.649 38.214l92.346-14.626c30.357-38.022 45.334-88.14 37.17-139.69z"/>
	<path d="m1064.2 1101.4l-12.654-2.004c-0.053 0.352-0.098 0.703-0.153 1.055l-3.822 24.128c45.452 17.844 81.016 53.511 99.582 97.216 10.433 15.405 18.504 32.425 23.782 50.468l14.626-92.346c-26.778-40.621-69.814-70.352-121.36-78.517z"/>
	<path d="m1111.7 775.14l-5.817 11.416c0.318 0.16 0.638 0.31 0.956 0.472l21.766 11.091c31.016-37.713 75.928-60.515 123.23-64.667 17.875-5.162 36.556-7.579 55.347-7.023l-83.306-42.447c-46.908 12.914-88.483 44.657-112.18 91.158z"/>
	<path d="m816.05 629.15l9.06 9.06c0.25-0.253 0.492-0.511 0.744-0.763l17.274-17.274c-26.283-41.152-34.09-90.912-23.422-137.18 0.614-18.596 4.089-37.109 10.424-54.808l-66.112 66.112c-2.212 48.602 15.129 97.951 52.032 134.86z"/>
	<path d="m615.1 775.14l5.817 11.416c-0.318 0.16-0.638 0.31-0.956 0.472l-21.767 11.091c-31.016-37.713-75.928-60.515-123.23-64.667-17.875-5.162-36.556-7.579-55.347-7.023l83.306-42.447c46.909 12.914 88.484 44.657 112.18 91.158z"/>
	<path d="m662.6 1101.4l12.654-2.004c0.053 0.352 0.098 0.703 0.153 1.055l3.822 24.128c-45.452 17.844-81.016 53.511-99.582 97.216-10.433 15.405-18.504 32.425-23.782 50.468l-14.626-92.346c26.778-40.621 69.814-70.352 121.36-78.517z"/>
	<path d="m987.57 1157l2.004-12.654c0.351 0.058 0.699 0.125 1.05 0.18l24.128 3.822c2.925 48.742 25.857 93.587 61.685 124.75 11.427 14.683 25.12 27.619 40.649 38.214l-92.346-14.626c-30.357-38.022-45.334-88.14-37.17-139.69z"/>
	<path d="m1140.9 865.17l-11.416-5.817c0.163-0.316 0.334-0.626 0.496-0.943l11.091-21.767c47.26 12.28 96.996 4.328 137.71-20.116 17.496-6.33 34.029-15.356 48.904-26.851l-42.447 83.306c-45.541 17.124-97.834 15.881-144.33-7.812z"/>
	<path d="m910.71 629.15l-9.06 9.06c-0.25-0.253-0.492-0.511-0.744-0.763l-17.274-17.274c26.283-41.152 34.09-90.912 23.422-137.18-0.614-18.596-4.089-37.109-10.424-54.808l66.112 66.112c2.212 48.602-15.129 97.951-52.032 134.86z"/>
	<path d="m812.55 922.1c-2.801-1.724-5.521-3.593-8.147-5.603l-44.692 22.772 49.542-7.847c0.942-3.17 2.044-6.281 3.297-9.322z"/>
	<path d="m831.96 862.34c0.774-3.197 1.711-6.361 2.811-9.48l-35.468-35.468 22.772 44.692c3.307-0.083 6.606 4e-3 9.885 0.256z"/>
	<path d="m894.8 862.34c3.279-0.252 6.579-0.339 9.885-0.256l22.772-44.692-35.468 35.468c1.1 3.118 2.037 6.283 2.811 9.48z"/>
	<path d="m914.22 922.1c1.253 3.041 2.355 6.152 3.298 9.322l49.542 7.847-44.692-22.772c-2.627 2.01-5.347 3.879-8.148 5.603z"/>
	<path d="m863.38 959.03c-2.505 2.132-5.123 4.141-7.847 6.017l7.847 49.542 7.847-49.542c-2.723-1.876-5.342-3.885-7.847-6.017z"/>
	<path d="m682.23 938.08c5.349 2.281 10.808 4.288 16.354 6.021l88.308-44.995c-2.607-3.36-5.018-6.922-7.202-10.684l-97.46 49.658z"/>
	<path d="m838.3 1087.9c3.822-4.382 7.418-8.954 10.78-13.693l-15.504-97.89c-4.001 1.441-8.134 2.633-12.387 3.548l17.111 108.04z"/>
	<path d="m1029 985.77c-2.986-4.989-6.223-9.822-9.692-14.484l-97.89-15.504c0.134 4.251-9e-3 8.55-0.453 12.877l108.04 17.111z"/>
	<path d="m990.84 772.81c-5.668 1.299-11.264 2.883-16.77 4.742l-44.995 88.308c4.084 1.186 8.128 2.651 12.107 4.41l49.658-97.46z"/>
	<path d="m776.5 743.34c-0.516 5.792-0.739 11.604-0.673 17.414l70.082 70.082c2.39-3.518 5.033-6.911 7.936-10.151l-77.345-77.345z"/>
	<path d="m735.92 772.81c5.668 1.299 11.264 2.883 16.77 4.742l44.995 88.308c-4.084 1.186-8.128 2.651-12.107 4.41l-49.658-97.46z"/>
	<path d="m697.72 985.77c2.986-4.989 6.223-9.822 9.692-14.484l97.89-15.504c-0.134 4.251 9e-3 8.55 0.453 12.877l-108.04 17.111z"/>
	<path d="m888.46 1087.9c-3.822-4.382-7.418-8.954-10.78-13.693l15.504-97.89c4.001 1.441 8.134 2.633 12.387 3.548l-17.111 108.04z"/>
	<path d="m1044.5 938.08c-5.349 2.281-10.808 4.288-16.354 6.021l-88.308-44.995c2.607-3.36 5.018-6.922 7.202-10.684l97.46 49.658z"/>
	<path d="m950.26 743.34c0.516 5.792 0.739 11.604 0.673 17.414l-70.082 70.082c-2.39-3.518-5.033-6.911-7.936-10.151l77.345-77.345z"/>
	<path d="m670.04 932.32c0.78 0.407 1.568 0.798 2.354 1.193l103.28-52.626-0.968-1.899-104.67 53.332z"/>
	<path d="m829.07 1097.7c0.628-0.616 1.243-1.245 1.862-1.87l-18.134-114.49-2.105 0.333 18.377 116.03z"/>
	<path d="m1035.5 997.59c-0.392-0.788-0.799-1.567-1.203-2.349l-114.49-18.134-0.333 2.105 116.03 18.378z"/>
	<path d="m1004.1 770.31c-0.87 0.129-1.737 0.276-2.606 0.419l-52.626 103.28 1.899 0.968 53.333-104.67z"/>
	<path d="m778.21 729.97c-0.146 0.868-0.274 1.738-0.407 2.607l81.967 81.967 1.507-1.507-83.067-83.067z"/>
	<path d="m722.68 770.31c0.87 0.129 1.738 0.276 2.606 0.419l52.626 103.28-1.899 0.968-53.333-104.67z"/>
	<path d="m691.25 997.59c0.392-0.788 0.799-1.567 1.203-2.349l114.49-18.134 0.333 2.105-116.03 18.378z"/>
	<path d="m897.69 1097.7c-0.628-0.616-1.243-1.245-1.862-1.87l18.134-114.49 2.105 0.333-18.377 116.03z"/>
	<path d="m1056.7 932.32c-0.78 0.407-1.568 0.798-2.354 1.193l-103.28-52.626 0.968-1.899 104.67 53.332z"/>
	<path d="m948.56 729.97c0.146 0.868 0.274 1.738 0.407 2.607l-81.967 81.967-1.507-1.507 83.067-83.067z"/>
	<path d="m771.64 875.77l-106.14 54.08c0.75 0.42 1.503 0.833 2.259 1.242l105.99-54.005-0.386-0.757 0.757-0.386-54.005-105.99c-0.852-0.113-1.704-0.222-2.557-0.323l54.08 106.14z"/>
	<path d="m863.38 809.12l-84.232-84.232c-0.168 0.843-0.328 1.687-0.483 2.532l84.114 84.114 0.601-0.601 0.601 0.601 84.114-84.114c-0.155-0.845-0.315-1.689-0.483-2.532l-84.232 84.232z"/>
	<path d="m955.12 875.77l54.08-106.14c-0.853 0.101-1.705 0.21-2.557 0.323l-54.005 105.99 0.757 0.386-0.386 0.757 105.99 54.005c0.756-0.409 1.509-0.821 2.259-1.242l-106.14-54.081z"/>
	<path d="m920.08 983.62l117.66 18.635c-0.36-0.781-0.727-1.557-1.098-2.332l-117.49-18.609-0.133 0.839-0.839-0.133-18.609 117.49c0.622 0.592 1.247 1.181 1.879 1.764l18.636-117.66z"/>
	<path d="m806.68 983.62l18.635 117.66c0.631-0.583 1.256-1.172 1.879-1.764l-18.609-117.49-0.839 0.133-0.133-0.839-117.49 18.609c-0.371 0.775-0.738 1.552-1.098 2.332l117.66-18.635z"/>
	<path d="m754.44 870.18l-101.66 51.8c2.73 1.858 5.512 3.628 8.337 5.321l104.79-53.395-53.395-104.79c-3.281-0.29-6.572-0.494-9.873-0.595l51.8 101.66z"/>
	<path d="m863.38 791.03l-80.68-80.68c-0.923 3.17-1.747 6.364-2.485 9.573l83.165 83.165 83.165-83.165c-0.738-3.21-1.561-6.403-2.485-9.573l-80.68 80.68z"/>
	<path d="m972.33 870.18l51.8-101.66c-3.3 0.102-6.592 0.305-9.873 0.595l-53.395 104.79 104.79 53.395c2.825-1.694 5.607-3.464 8.337-5.321l-101.66-51.8z"/>
	<path d="m930.71 998.26l112.69 17.849c-1.117-3.108-2.327-6.175-3.617-9.206l-116.16-18.399-18.399 116.16c2.484 2.163 5.027 4.262 7.637 6.285l17.85-112.69z"/>
	<path d="m796.05 998.26l17.849 112.69c2.61-2.022 5.154-4.121 7.637-6.285l-18.399-116.16-116.16 18.399c-1.29 3.03-2.5 6.098-3.617 9.206l112.69-17.849z"/>
	<path d="m705.7 854.35l-82.542 42.057c5.136 5.587 10.604 10.789 16.363 15.586l94.848-48.328-48.328-94.848c-7.478 0.496-14.96 1.49-22.399 2.991l42.058 82.542z"/>
	<path d="m863.38 739.78l-65.505-65.505c-3.726 6.611-6.984 13.419-9.767 20.379l75.272 75.272 75.272-75.272c-2.782-6.959-6.04-13.768-9.767-20.379l-65.505 65.505z"/>
	<path d="m1021.1 854.35l42.057-82.542c-7.439-1.501-14.921-2.496-22.399-2.991l-48.328 94.848 94.848 48.328c5.759-4.797 11.227-9.999 16.363-15.586l-82.541-42.057z"/>
	<path d="m960.84 1039.7l91.498 14.492c-0.871-7.539-2.237-14.962-4.077-22.227l-105.14-16.653-16.653 105.14c6.342 3.995 12.979 7.588 19.88 10.746l14.492-91.498z"/>
	<path d="m765.93 1039.7l14.492 91.498c6.901-3.158 13.538-6.751 19.88-10.746l-16.653-105.14-105.14 16.653c-1.84 7.266-3.206 14.689-4.077 22.227l91.498-14.492z"/>
	<path d="m645.49 834.78l-48.226 24.573c3.316 6.409 6.984 12.525 10.975 18.331l65.921-33.588-33.588-65.921c-6.642 2.351-13.204 5.143-19.654 8.379l24.572 48.226z"/>
	<path d="m863.38 676.48l-38.273-38.273c-5.071 5.134-9.754 10.513-14.042 16.103l52.315 52.315 52.315-52.315c-4.289-5.59-8.971-10.969-14.042-16.103l-38.273 38.273z"/>
	<path d="m1081.3 834.78l24.573-48.226c-6.45-3.236-13.012-6.028-19.654-8.379l-33.588 65.921 65.921 33.588c3.991-5.806 7.66-11.922 10.975-18.331l-48.227-24.573z"/>
	<path d="m998.04 1090.9l53.459 8.467c1.085-7.134 1.712-14.238 1.896-21.281l-73.074-11.574-11.574 73.074c6.755 2.002 13.705 3.601 20.826 4.774l8.467-53.46z"/>
	<path d="m728.72 1090.9l8.467 53.459c7.12-1.173 14.07-2.772 20.826-4.774l-11.574-73.074-73.074 11.574c0.184 7.043 0.811 14.147 1.896 21.281l53.459-8.466z"/>
	<path d="m578.96 813.17c-1.442 0.614-2.889 1.207-4.34 1.78l11.056 21.699c10.506-2.73 20.89-6.449 31.024-11.217-5.396-9.814-11.611-18.926-18.506-27.31l-21.699 11.056c0.838 1.317 1.659 2.648 2.465 3.992z"/>
	<path d="m863.38 606.52c-1.03-1.182-2.041-2.375-3.034-3.577l-17.221 17.221c5.842 9.148 12.589 17.875 20.255 26.039 7.666-8.165 14.412-16.891 20.255-26.039l-17.221-17.221c-0.993 1.202-2.004 2.395-3.034 3.577z"/>
	<path d="m1147.8 813.17c0.806-1.344 1.628-2.675 2.465-3.991l-21.699-11.056c-6.895 8.383-13.109 17.496-18.506 27.31 10.134 4.768 20.518 8.487 31.024 11.217l11.056-21.699c-1.451-0.574-2.898-1.167-4.34-1.781z"/>
	<path d="m1039.2 1147.5c1.528 0.351 3.047 0.721 4.557 1.111l3.81-24.054c-10.104-3.967-20.691-7.061-31.692-9.161-1.403 11.111-1.731 22.136-1.081 32.971l24.054 3.81c0.096-1.556 0.214-3.115 0.352-4.677z"/>
	<path d="m687.6 1147.5c0.138 1.561 0.255 3.121 0.352 4.678l24.054-3.81c0.65-10.835 0.322-21.86-1.081-32.971-11.001 2.099-21.588 5.194-31.692 9.161l3.81 24.054c1.51-0.39 3.029-0.761 4.557-1.112z"/>
	<path d="m808.44 887.73c-3.183 1.879-6.443 3.671-9.78 5.371l-11.774 5.999c5.133 6.615 11.033 12.435 17.51 17.394l4.909-2.501c9.742-4.964 18.836-10.712 27.244-17.13-3.03-10.135-7.009-20.13-11.972-29.872l-2.501-4.909c-8.155 0.205-16.349 1.446-24.39 3.78l5.999 11.774c1.701 3.337 3.285 6.703 4.755 10.094z"/>
	<path d="m863.38 847.82c-2.771-2.446-5.483-4.993-8.13-7.641l-9.344-9.344c-4.705 6.926-8.417 14.335-11.132 22.028l3.895 3.896c7.731 7.731 16.008 14.603 24.71 20.617 8.702-6.014 16.979-12.886 24.71-20.617l3.896-3.896c-2.715-7.693-6.427-15.102-11.132-22.028l-9.344 9.344c-2.646 2.648-5.358 5.195-8.129 7.641z"/>
	<path d="m918.32 887.73c1.47-3.391 3.055-6.758 4.755-10.094l5.999-11.774c-8.041-2.334-16.235-3.575-24.39-3.78l-2.501 4.909c-4.964 9.742-8.942 19.737-11.972 29.872 8.409 6.418 17.502 12.166 27.244 17.13l4.909 2.501c6.477-4.959 12.377-10.779 17.51-17.394l-11.774-5.999c-3.337-1.699-6.597-3.491-9.78-5.371z"/>
	<path d="m897.33 952.32c3.68 0.35 7.371 0.817 11.069 1.403l13.051 2.067c-0.265-8.368-1.617-16.545-3.942-24.364l-5.441-0.862c-10.799-1.71-21.535-2.405-32.11-2.155-3.505 9.98-6.162 20.405-7.873 31.204l-0.862 5.441c6.718 4.628 14.077 8.44 21.954 11.278l2.067-13.051c0.587-3.698 1.283-7.353 2.087-10.961z"/>
	<path d="m829.43 952.32c0.804 3.608 1.501 7.262 2.086 10.961l2.067 13.051c7.877-2.838 15.236-6.65 21.954-11.278l-0.862-5.441c-1.71-10.799-4.367-21.224-7.873-31.204-10.575-0.25-21.311 0.445-32.11 2.155l-5.441 0.862c-2.325 7.819-3.677 15.996-3.942 24.364l13.051-2.067c3.699-0.586 7.39-1.052 11.07-1.403z"/>
	<path d="m780.24 878.57l-4.555 2.321 1.452 2.849c0.812 1.593 1.665 3.152 2.553 4.68l12.019-6.124-6.124-12.019c-1.617 0.715-3.223 1.474-4.816 2.286l-2.849 1.452 2.32 4.555z"/>
	<path d="m863.38 818.16l-3.615-3.615-2.261 2.261c-1.264 1.264-2.483 2.558-3.662 3.874l9.538 9.538 9.538-9.538c-1.18-1.316-2.398-2.61-3.662-3.874l-2.261-2.261-3.615 3.615z"/>
	<path d="m946.52 878.57l2.321-4.555-2.849-1.452c-1.593-0.812-3.2-1.571-4.816-2.286l-6.124 12.019 12.019 6.124c0.888-1.529 1.741-3.087 2.553-4.68l1.452-2.849-4.556-2.321z"/>
	<path d="m914.77 976.31l5.05 0.8 0.5-3.158c0.28-1.766 0.505-3.528 0.686-5.287l-13.323-2.11-2.11 13.323c1.728 0.372 3.474 0.702 5.24 0.982l3.158 0.5 0.799-5.05z"/>
	<path d="m812 976.31l0.8 5.05 3.158-0.5c1.766-0.28 3.512-0.61 5.24-0.982l-2.11-13.323-13.323 2.11c0.18 1.758 0.406 3.521 0.686 5.287l0.5 3.158 5.049-0.8z"/>
	<polygon points="774.5 876.7 773.75 877.09 774.72 878.99 777.37 877.64 776.02 874.98 774.12 875.95"/>
	<polygon points="863.38 812.13 862.78 811.53 861.27 813.04 863.38 815.15 865.49 813.04 863.98 811.53"/>
	<polygon points="952.26 876.7 952.64 875.95 950.74 874.98 949.39 877.64 952.05 878.99 953.01 877.09"/>
	<polygon points="918.31 981.18 919.15 981.32 919.48 979.21 916.54 978.75 916.07 981.69 918.18 982.02"/>
	<polygon points="808.45 981.18 808.58 982.02 810.69 981.69 810.22 978.75 807.28 979.21 807.61 981.32"/>
	<path d="m355.35 740.51c11.653 19.43 26.584 35.931 43.712 49.167l-21.349-41.9 41.9-21.349c-21.636 0.639-43.414 5.213-64.263 14.082z"/>
	<path d="m863.38 371.41c-14.878 17.087-25.957 36.386-33.252 56.766l33.252-33.252 33.252 33.252c-7.294-20.379-18.374-39.678-33.252-56.766z"/>
	<path d="m1371.4 740.51c-20.849-8.87-42.627-13.443-64.264-14.083l41.9 21.349-21.349 41.9c17.129-13.235 32.06-29.736 43.713-49.166z"/>
	<path d="m1177.4 1337.7c1.993-22.569-0.387-44.694-6.465-65.47l-7.356 46.447-46.447-7.356c17.881 12.199 38.188 21.3 60.268 26.379z"/>
	<path d="m549.4 1337.7c22.08-5.079 42.387-14.18 60.268-26.38l-46.447 7.356-7.356-46.447c-6.078 20.777-8.458 42.902-6.465 65.471z"/>
	<path d="m383.57 749.68c15.649 28.474 38.149 51.086 64.402 66.849 40 14.473 85.008 14.854 126.65-1.583l-1.712-3.359c-34.024 1.834-67.872-6.117-97.391-22.516-16.546-5.87-32.251-14.145-46.525-24.632 17.712-0.095 35.281 2.442 52.118 7.419 33.521 4.083 65.578 17.547 92.026 39.029l3.359-1.712c-24.027-37.774-60.663-63.921-101.53-75.723-30.504-2.678-61.998 2.39-91.395 16.228z"/>
	<path d="m863.38 401.08c-22.245 23.682-36.797 52.069-43.676 81.907-1.404 42.515 12.142 85.437 40.642 119.96l2.666-2.666c-12.258-31.792-15.156-66.441-8.681-99.583 0.47-17.55 3.486-35.044 9.049-51.859 5.563 16.816 8.58 34.309 9.049 51.859 6.475 33.142 3.577 67.791-8.681 99.583l2.666 2.666c28.501-34.524 42.047-77.447 40.642-119.96-6.879-29.839-21.431-58.225-43.676-81.907z"/>
	<path d="m1343.2 749.68c-29.397-13.838-60.891-18.906-91.395-16.228-40.868 11.802-77.504 37.949-101.53 75.723l3.359 1.712c26.448-21.482 58.505-34.946 92.026-39.029 16.837-4.976 34.406-7.513 52.118-7.419-14.274 10.487-29.979 18.762-46.525 24.632-29.519 16.399-63.368 24.35-97.392 22.516l-1.712 3.359c41.642 16.437 86.65 16.056 126.65 1.583 26.253-15.763 48.754-38.375 64.403-66.849z"/>
	<path d="m1159.9 1313.7c4.077-32.234-0.836-63.753-12.809-91.937-23.853-35.22-60.042-61.984-103.39-73.162l-0.59 3.724c28.604 18.515 51.315 44.843 65.557 75.461 9.936 14.475 17.778 30.4 23.161 47.274-14.385-10.334-27.107-22.714-37.803-36.636-24.719-23.006-42.74-52.741-51.51-85.667l-3.724-0.59c-2.765 44.683 11.506 87.37 37.631 120.94 23.105 20.097 51.563 34.509 83.479 40.593z"/>
	<path d="m566.84 1313.7c31.917-6.084 60.374-20.496 83.479-40.592 26.125-33.57 40.396-76.257 37.631-120.94l-3.724 0.59c-8.77 32.925-26.791 62.66-51.51 85.667-10.696 13.922-23.418 26.302-37.803 36.636 5.383-16.875 13.225-32.8 23.161-47.274 14.242-30.618 36.953-56.946 65.557-75.461l-0.59-3.724c-43.35 11.178-79.539 37.942-103.39 73.162-11.973 28.183-16.886 59.701-12.809 91.936z"/>
	<path d="m572.67 811.12l0.236 0.464c0.338-0.018 0.676-0.037 1.015-0.057-0.262-0.215-0.524-0.429-0.787-0.643l-0.464 0.236z"/>
	<path d="m863.38 599.91l-0.368 0.368c0.122 0.316 0.245 0.632 0.368 0.947 0.124-0.315 0.246-0.631 0.368-0.947l-0.368-0.368z"/>
	<path d="m1154.1 811.12l-0.464-0.236c-0.263 0.214-0.525 0.428-0.787 0.643 0.338 0.02 0.677 0.039 1.015 0.057l0.236-0.464z"/>
	<path d="m1043 1152.9l0.081-0.514c-0.284-0.184-0.569-0.367-0.855-0.55 0.085 0.328 0.172 0.656 0.259 0.983l0.515 0.081z"/>
	<path d="m683.71 1152.9l0.514-0.081c0.087-0.327 0.173-0.655 0.259-0.983-0.285 0.183-0.57 0.366-0.855 0.55l0.082 0.514z"/>
	<path d="m448.74 770.86c8.397 6.901 17.369 12.988 26.782 18.217 19.599 6.953 40.379 10.534 61.359 10.421-16.907-12.423-35.822-21.74-55.766-27.635-10.688-1.302-21.525-1.651-32.375-1.003z"/>
	<path d="m863.38 469.6c-3.969 10.119-6.985 20.533-9.049 31.1-0.557 20.789 2.459 41.658 9.049 61.576 6.59-19.918 9.606-40.787 9.049-61.576-2.064-10.567-5.08-20.981-9.049-31.1z"/>
	<path d="m1278 770.86c-10.85-0.647-21.686-0.298-32.375 1.004-19.943 5.895-38.859 15.212-55.766 27.635 20.98 0.113 41.759-3.468 61.359-10.421 9.412-5.23 18.384-11.317 26.782-18.218z"/>
	<path d="m1119.6 1258.3c-2.737-10.519-6.418-20.717-10.959-30.48-11.769-17.146-26.475-32.256-43.515-44.497 6.376 19.988 16.203 38.644 28.872 55.135 7.882 7.336 16.444 13.989 25.602 19.842z"/>
	<path d="m607.12 1258.3c9.158-5.854 17.72-12.506 25.602-19.842 12.67-16.491 22.496-35.147 28.872-55.135-17.04 12.241-31.746 27.351-43.515 44.497-4.541 9.763-8.222 19.961-10.959 30.48z"/>
</svg>
