<svg xmlns="http://www.w3.org/2000/svg" width="1006.002" height="299.562" viewBox="0 0 1006.002 299.562">
  <defs>
    <style>
      .cls-1 {
        fill: #171712;
        fill-rule: evenodd;
      }
    </style>
  </defs>
  <path id="_Vitish_Katya_" data-name="                                Vitish Katya                   " class="cls-1" d="M230.991,46.518L222.238,77.7l-8.753-31.18h-9.813l13.207,44.417h10.459l13.207-44.417h-9.554ZM259.352,83.06h-5.935V54.393h5.935V46.518H238.143v7.875h5.934V83.06h-5.934v7.875h21.209V83.06Zm29.971-36.542h-31.96v8.591h11.31V90.935h9.34V55.109h11.31V46.518Zm19.22,36.542h-5.934V54.393h5.934V46.518H287.334v7.875h5.935V83.06h-5.935v7.875h21.209V83.06ZM337.189,69.5a13.119,13.119,0,0,0-6.142-4.549,34.5,34.5,0,0,0-3.952-1.313q-1.838-.477-3.831-0.984a10.871,10.871,0,0,1-4.135-1.715,3.708,3.708,0,0,1-.413-4.773,4.337,4.337,0,0,1,1.629-1.357,7.847,7.847,0,0,1,2.226-.731,14.022,14.022,0,0,1,2.323-.194,15.483,15.483,0,0,1,6.482,1.447,18.569,18.569,0,0,1,5.363,3.595h1V48.7a28.588,28.588,0,0,0-6.044-2.133,29.751,29.751,0,0,0-7.066-.85q-7.126,0-11.662,3.923a12.768,12.768,0,0,0-4.536,10.127,14.018,14.018,0,0,0,2.006,7.741,13.369,13.369,0,0,0,6.579,4.937,28.263,28.263,0,0,0,4.269,1.328q2.274,0.522,4.317,1.119a6.514,6.514,0,0,1,2.955,1.626,3.529,3.529,0,0,1,1.01,2.521,3.565,3.565,0,0,1-.694,2.386,5.609,5.609,0,0,1-1.763,1.342,7.556,7.556,0,0,1-2.262.6,18.3,18.3,0,0,1-2.238.179,17.638,17.638,0,0,1-6.9-1.521,20.839,20.839,0,0,1-6.482-4.355h-1.021V88.31a35.282,35.282,0,0,0,6.263,2.461,28.323,28.323,0,0,0,7.844.969q7.782,0,12.319-4.1a13.707,13.707,0,0,0,4.536-10.664A12.918,12.918,0,0,0,337.189,69.5Zm34.872-22.984h-9.34V62.776H348.93V46.518h-9.34V90.935h9.34V71.367h13.791V90.935h9.34V46.518Zm33.26,20.553,14.156-20.553H408.651L395.714,66.642V46.518h-9.34V90.935h9.34V76.442l2.166-3.284,10.826,17.777h11.476Zm33.82-20.553H428.39L415.013,90.935h9.412l2.523-8.979h13.4l2.523,8.979h9.645Zm-9.948,27.294L433.649,57.9l4.456,15.912h-8.912Zm50.888-27.294H448.122v8.591h11.309V90.935h9.34V55.109h11.31V46.518Zm21.23,0-7.549,17.133-7.808-17.133H475.32L488.892,74.29V90.935h9.339V73.753l13.353-27.235H501.311Zm29.226,0h-10.75L506.41,90.935h9.412l2.523-8.979h13.4l2.522,8.979h9.646ZM520.59,73.813L525.046,57.9,529.5,73.813H520.59ZM312.972,140.548q-4.245-14.818-12.285-24.324a43.936,43.936,0,0,0-15.413-11.839q-8.711-3.945-21.4-3.947H207.408V340.289h34.309V262.164h21.354q14.562,0,24.347-7.248t17.736-21.424q5.806-10.47,8.935-25.854a157.726,157.726,0,0,0,3.127-31.491Q317.216,155.368,312.972,140.548Zm-32.7,54.415a35.986,35.986,0,0,1-4.78,12.3,18.582,18.582,0,0,1-9.516,7.714,45.55,45.55,0,0,1-14.43,1.928h-9.828V145.219h5.9q8.487,0,13.581.4a20.831,20.831,0,0,1,10.454,4.258q4.02,2.892,7.058,10.206a45.352,45.352,0,0,1,3.038,17.437A88,88,0,0,1,280.271,194.963ZM430.619,129.03q-18.317-33.585-50.3-33.585-32.076,0-50.3,33.585t-18.227,91.414q0,57.348,18.227,91.092t50.3,33.746q32.166,0,50.392-33.746t18.227-91.092Q448.935,162.618,430.619,129.03ZM393,295.428a20.4,20.4,0,0,1-12.6,4.59,20.608,20.608,0,0,1-12.6-4.51q-5.986-4.507-10.454-14.014t-7.192-24.565q-2.727-15.06-2.725-36.485a212.908,212.908,0,0,1,2.814-36.807q2.814-15.864,7.282-24.887,4.824-9.665,10.588-13.853a19.943,19.943,0,0,1,24.659.161q5.942,4.349,10.5,14.014,4.467,9.343,7.237,24.484t2.77,36.727a221.973,221.973,0,0,1-2.413,35.035,101.154,101.154,0,0,1-7.416,25.854Q398.989,290.837,393,295.428Zm133.1-105.348a34.429,34.429,0,0,1-5.226,11.034,16.517,16.517,0,0,1-9.293,6.6,55.356,55.356,0,0,1-13.759,1.449H487.287V144.575h12.419a91.11,91.11,0,0,1,10.811.563,16.856,16.856,0,0,1,8.131,3.142,19.684,19.684,0,0,1,7.058,10.148,51.228,51.228,0,0,1,2.055,15.463Q527.761,184.04,526.108,190.08Zm10.767,47.439A73.088,73.088,0,0,0,556.4,209.652q6.835-16.752,6.835-43.331,0-19.33-4.422-32.136t-11.928-20.86q-7.417-8.053-15.9-10.47a74.708,74.708,0,0,0-20.282-2.417h-57.54V340.289h34.131V252.338h15.9l36.193,87.951h41.9ZM678.423,100.438H561.02V146.83h41.547V340.289h34.309V146.83h41.547V100.438Zm94.015,0H677.1V340.289h34.131V237.841H767.97V191.449H711.235V146.83h61.2V100.438ZM885.216,129.03q-18.318-33.585-50.3-33.585-32.077,0-50.3,33.585t-18.227,91.414q0,57.348,18.227,91.092t50.3,33.746q32.164,0,50.392-33.746t18.227-91.092Q903.532,162.618,885.216,129.03ZM847.6,295.428a20.4,20.4,0,0,1-12.6,4.59,20.61,20.61,0,0,1-12.6-4.51q-5.986-4.507-10.453-14.014t-7.193-24.565q-2.727-15.06-2.725-36.485a212.908,212.908,0,0,1,2.814-36.807q2.816-15.864,7.282-24.887,4.826-9.665,10.588-13.853a19.944,19.944,0,0,1,24.66.161q5.94,4.349,10.5,14.014,4.467,9.343,7.237,24.484t2.77,36.727a222.1,222.1,0,0,1-2.412,35.035,101.235,101.235,0,0,1-7.416,25.854Q853.586,290.837,847.6,295.428Zm156.11-1.531H942.062V100.438H907.753V340.289h95.957V293.9Zm70.61,3.866h-21.8v-154.8h21.8V100.438H996.407v42.526h21.8v154.8h-21.8v42.526h77.913V297.763ZM1191.38,129.03q-18.315-33.585-50.3-33.585-32.07,0-50.3,33.585t-18.23,91.414q0,57.348,18.23,91.092t50.3,33.746q32.175,0,50.39-33.746t18.23-91.092Q1209.7,162.618,1191.38,129.03Zm-37.61,166.4a20.4,20.4,0,0,1-12.6,4.59,20.612,20.612,0,0,1-12.6-4.51q-5.985-4.507-10.45-14.014t-7.19-24.565q-2.73-15.06-2.73-36.485a212.465,212.465,0,0,1,2.82-36.807q2.805-15.864,7.28-24.887,4.815-9.665,10.59-13.853a19.944,19.944,0,0,1,24.66.161q5.94,4.349,10.49,14.014,4.47,9.343,7.24,24.484t2.77,36.727a221.885,221.885,0,0,1-2.41,35.035,101.07,101.07,0,0,1-7.42,25.854Q1159.75,290.837,1153.77,295.428Z" transform="translate(-203.688 -45.719)"/>
</svg>
