<svg xmlns="http://www.w3.org/2000/svg" width="422.594" height="445" viewBox="0 0 422.594 445">
  <defs>
    <style>
      .cls-1 {
        fill: #737373;
        fill-rule: evenodd;
      }
    </style>
  </defs>
  <path id="Фигура_84" data-name="Фигура 84" class="cls-1" fill="red" d="M39.5,31.993l1,0.014-1,69-1-.014Zm-1.125,69.338-0.75-.662,30-34,0.75,0.662ZM67.39,66.688l-0.781.625-28-35,0.781-.625ZM38.993,32.5l0.013-1,75,1-0.014,1Zm74.7,0.106,0.616,0.788-46,36-0.616-.788Zm-46.01,36.78,0.636-.771,40,33-0.636.772ZM108.5,102.044l-1-.088,6-68,1,0.088ZM38.986,101.5l0.029-1,69,2-0.028,1Zm68.527,1.607,0.976-.214,11,50-0.976.214ZM119.974,152.5l0.052,1-57,3-0.053-1Zm-56.593,4.823-0.762-.648,45-53,0.762,0.648ZM108.026,103.5l-0.052,1-38-2,0.053-1ZM69.5,101.955l1,0.09-5,55-1-.09Zm-4.049,54.834-0.907.422-26-56,0.907-.422ZM38.5,100.95l1,0.1-6,60-1-.1ZM33.08,161.494l-0.159-.988,31-5,0.159,0.988ZM63.5,156.036l1-.072,4,55-1,.072ZM68.016,210.5l-0.031,1-32-1,0.031-1Zm-31.573-.267-0.885-.466,29-55,0.885,0.466ZM64.9,154.511l0.208,0.978-33,7-0.208-.978ZM32.5,162.042l1-.084,4,48-1,.084Zm85.116-8.364,0.764,0.644-48,57-0.765-.644Zm0.93,0.108,0.9,0.428-28,59-0.9-.428ZM91.022,211.5l-0.043,1-23-1,0.043-1ZM66.5,210.993l1,0.014-1,71-1-.014Zm1.954,69.8-0.907.42-32-69,0.907-.42ZM37.507,211.085l0.985-.17,13,75-0.985.17Zm13.716,75.362-0.447-.894,16-8,0.447,0.894Zm15.594-7.981,0.364-.932,23,9-0.364.932Zm23.664,8.4-0.963.27-21-75,0.963-.27ZM68.553,212.224l0.894-.448,1,2-0.894.448ZM90,212h1v73H90V212Zm0.529,0.167,0.943-.334,28,79-0.942.334ZM119.048,290.5l-0.1,1-31-3,0.1-1ZM88.556,287.77l0.888,0.46-28,54-0.888-.46ZM61.492,341.912l-0.984.176-10-56,0.984-.176Zm-10.97-56.061,0.955,0.3-19,61-0.955-.3ZM32.085,346.493l-0.17-.986,29-5,0.17,0.986Zm28.9-4.993,0.034-1,58,2-0.034,1ZM119,343h-1V291h1v52Zm-86.5,4.007,1-.014,1,67-1,.014ZM34,414v-1H85v1H34Zm52.475-.156-0.95.312-24-73,0.95-.312Zm0.982,1.359-0.914-.406,32-72,0.914,0.406ZM119.5,343.986l1,0.028-2,70-1-.028ZM118,413v1H86v-1h32Zm-83.5,2.023,1-.046,2,43-1,.046Zm2.746,44.412-0.494-.87,81-46,0.494,0.87Zm79.324-45.692,0.858,0.514-21,35-0.857-.514Zm-20.347,36.81-0.447.894-24-12,0.447-.894ZM71.5,439.045l1-.09,3,33-1,.09Zm3.648,32.478-0.3.954-38-12,0.3-.954Zm0.2,0.831-0.707-.708,21-21,0.707,0.708ZM76,472v-1h67v1H76Zm42.542-57.8,0.916-.4,26,59-0.916.4Zm1.264,0.259,0.388-.922,45,19-0.388.922Zm43.747,18.315,0.894,0.448-19,38-0.894-.448ZM146.009,471.5l-0.018-1,57-1,0.018,1Zm57.331-1.867-0.68.734-40-37,0.68-.734Zm-39.151-35.17-0.378-.926,44-18,0.378,0.926Zm43.312-18.5,1,0.076-4,53-1-.076Zm1.021,0.183,0.956-.29,17,56-0.956.29ZM226,471v1H202v-1h24Zm-7.754-28.565-0.492-.87,39-22,0.492,0.87ZM256.5,420.01l1-.02,1,52-1,.02Zm1.515,51.49-0.03,1-33-1,0.03-1ZM260,472v-1h49v1H260Zm50.347-.36-0.694.72-53-51,0.694-.72Zm-37.168-35.173-0.358-.934,39-15,0.358,0.934ZM312,421h1v50h-1V421Zm-19.459,8.2,0.918-.4,19,44-0.918.4Zm19.073-6.88,0.772-.636,42,51-0.772.636ZM355.035,473.5l-0.07,1-43-3,0.07-1Zm1.35,0.818-0.77-.638,43-52,0.77,0.638Zm44.455-51.793,0.32,0.948-68,23-0.32-.948Zm-0.34.484,1-.02,1,50-1,.02Zm1.521,51.49-0.042,1-48-2,0.042-1Zm-1.011-51-0.02-1,50-1,0.02,1Zm49.8-1.964,0.372,0.928-50,20-0.372-.928Zm0.829,1.114,0.714,0.7-50,51-0.714-.7Zm-0.143,1.36,1-.02,1,51-1,.02Zm1.49,50.49,0.02,1-51,1-0.02-1Zm-3.111-52.015,0.242-.97,4,1-0.242.97Zm3.568,0.291-0.894.448-1-2,0.894-.448Z" transform="translate(-31.531 -31.5)"/>
</svg>
